<svg width="118" height="22" viewBox="0 0 118 22" fill="none" xmlns="http://www.w3.org/2000/svg">
<path d="M5.65696 22H0.713778L8.24574 0.181818H14.1903L21.7116 22H16.7685L11.3033 5.16761H11.1328L5.65696 22ZM5.34801 13.424H17.0241V17.0249H5.34801V13.424ZM25.5549 0.181818L30.8283 16.7585H31.0307L36.3148 0.181818H41.4284L33.9071 22H27.9625L20.4306 0.181818H25.5549ZM44.9148 22H39.9716L47.5036 0.181818H53.4482L60.9695 22H56.0263L50.5611 5.16761H50.3906L44.9148 22ZM44.6058 13.424H56.282V17.0249H44.6058V13.424ZM60.0985 3.98508V0.181818H78.0176V3.98508H71.3379V22H66.7782V3.98508H60.0985ZM82.0632 22H77.12L84.652 0.181818H90.5966L98.1179 22H93.1747L87.7095 5.16761H87.5391L82.0632 22ZM81.7543 13.424H93.4304V17.0249H81.7543V13.424ZM100.744 22V0.181818H109.352C111 0.181818 112.406 0.476562 113.571 1.06605C114.743 1.64844 115.634 2.47585 116.245 3.5483C116.863 4.61364 117.172 5.86719 117.172 7.30895C117.172 8.75781 116.859 10.0043 116.234 11.0483C115.609 12.0852 114.703 12.8807 113.517 13.4347C112.338 13.9886 110.911 14.2656 109.235 14.2656H103.471V10.5582H108.489C109.37 10.5582 110.101 10.4375 110.684 10.196C111.266 9.95455 111.699 9.59233 111.983 9.10938C112.275 8.62642 112.42 8.02628 112.42 7.30895C112.42 6.58452 112.275 5.97372 111.983 5.47656C111.699 4.9794 111.262 4.60298 110.673 4.3473C110.091 4.08452 109.355 3.95312 108.468 3.95312H105.357V22H100.744ZM112.527 12.071L117.949 22H112.857L107.551 12.071H112.527Z" fill="#D69DF1"/>
</svg>
