<svg width="140" height="140" viewBox="0 0 140 140" fill="none" xmlns="http://www.w3.org/2000/svg">
<path d="M93.3333 58.3333C93.3333 64.5217 90.875 70.4566 86.4991 74.8325C82.1233 79.2083 76.1883 81.6667 70 81.6667C63.8116 81.6667 57.8766 79.2083 53.5008 74.8325C49.125 70.4566 46.6666 64.5217 46.6666 58.3333C46.6666 52.1449 49.125 46.21 53.5008 41.8342C57.8766 37.4583 63.8116 35 70 35C76.1883 35 82.1233 37.4583 86.4991 41.8342C90.875 46.21 93.3333 52.1449 93.3333 58.3333Z" fill="#D69DF1"/>
<path fill-rule="evenodd" clip-rule="evenodd" d="M67.62 128.287C36.5079 127.038 11.6666 101.418 11.6666 70C11.6666 37.7825 37.7825 11.6667 70 11.6667C102.217 11.6667 128.333 37.7825 128.333 70C128.333 102.217 102.217 128.333 70 128.333C69.7336 128.335 69.4672 128.335 69.2008 128.333C68.6729 128.333 68.145 128.316 67.62 128.287ZM32.5675 106.808C32.1313 105.556 31.9829 104.221 32.1331 102.903C32.2834 101.586 32.7285 100.319 33.4354 99.1966C34.1423 98.0744 35.0929 97.1259 36.2166 96.4214C37.3402 95.7169 38.6082 95.2745 39.9262 95.1271C62.6645 92.61 77.4754 92.8375 100.103 95.1796C101.423 95.317 102.694 95.7538 103.819 96.4567C104.945 97.1597 105.895 98.1101 106.598 99.2358C107.3 100.361 107.737 101.633 107.874 102.952C108.011 104.272 107.845 105.606 107.389 106.852C117.086 97.0401 122.517 83.7957 122.5 70C122.5 41.0054 98.9945 17.5 70 17.5C41.0054 17.5 17.5 41.0054 17.5 70C17.5 84.3383 23.2487 97.335 32.5675 106.808Z" fill="#D69DF1"/>
</svg>
