<svg xmlns="http://www.w3.org/2000/svg" version="1.1" xmlns:xlink="http://www.w3.org/1999/xlink" xmlns:svgjs="http://svgjs.dev/svgjs" width="2000" height="1500" viewBox="0 0 2000 1500"><rect width="2000" height="1500" fill="#ffffff"></rect><g transform="matrix(0.75,0,0,0.75,249.090909090909,601.5808963256447)"><svg viewBox="0 0 396 79" data-background-color="#ffffff" preserveAspectRatio="xMidYMid meet" height="398" width="2000" xmlns="http://www.w3.org/2000/svg" xmlns:xlink="http://www.w3.org/1999/xlink"><g id="tight-bounds" transform="matrix(1,0,0,1,0.2400000000000091,-0.21990221013714972)"><svg viewBox="0 0 395.52 79.4398044202743" height="79.4398044202743" width="395.52"><g><svg viewBox="0 0 395.52 79.4398044202743" height="79.4398044202743" width="395.52"><g><svg viewBox="0 0 395.52 79.4398044202743" height="79.4398044202743" width="395.52"><g id="textblocktransform"><svg viewBox="0 0 395.52 79.4398044202743" height="79.4398044202743" width="395.52" id="textblock"><g><svg viewBox="0 0 395.52 42.84603458556947" height="42.84603458556947" width="395.52"><g transform="matrix(1,0,0,1,0,0)"><svg width="395.52" viewBox="1.9 -26.15 251.53 27.25" height="42.84603458556947" data-palette-color="#bfdbff"><g class="wordmark-text-0" data-fill-palette-color="primary" id="text-0"><path d="M22.45-21.95L22.45-21.95Q20.7-22.25 19.07-22.25 17.45-22.25 15.15-21.7L15.15-21.7Q14.4-18.55 14.4-15.55L14.4-15.55Q14.4-7.8 21.3-3.65L21.3-3.65Q25.9-6.7 29.6-11.25L29.6-11.25Q29.75-9.25 29.85-5.15L29.85-5.15Q26.15-2.25 22.3-0.6 18.45 1.05 12.7 1.05L12.7 1.05 11.55 1.05Q7.05-0.9 4.48-4.7 1.9-8.5 1.9-12.7L1.9-12.7Q1.9-18.3 6.5-22.23 11.1-26.15 19.85-26.15L19.85-26.15Q24.75-26.15 30.1-24.9L30.1-24.9Q29.3-21.75 28.1-18.95L28.1-18.95Q24.95-18.65 21.6-18.65L21.6-18.65Q22.1-20.05 22.45-21.95ZM45.3-3.85Q47.65-3.3 49.8-3.3 51.95-3.3 53.22-4.28 54.5-5.25 55.1-7.65L55.1-7.65 61.1-7.45Q60.35-2.95 59.1 0L59.1 0 34.55 0Q33.6-6.4 33.6-13.25 33.6-20.1 34.3-25L34.3-25 48.7-25Q45.4-12.35 45.3-3.85L45.3-3.85ZM67.85-0.15L67.85-0.15Q63.4-5.85 63.4-11.85 63.4-17.85 68.4-22 73.4-26.15 81.2-26.15L81.2-26.15Q85.35-26.15 89.45-24.9L89.45-24.9Q93.05-20.35 93.05-15.15L93.05-15.15Q93.05-8.6 87.7-3.75 82.35 1.1 74.75 1.1L74.75 1.1Q71.5 1.1 67.85-0.15ZM75.45-21.8L75.45-21.8Q73.7-18.8 73.7-14.75 73.7-10.7 75.47-7.28 77.25-3.85 80.35-2.35L80.35-2.35Q82.7-5.35 82.7-9.3 82.7-13.25 80.77-16.65 78.85-20.05 75.45-21.8ZM118.19-21.75L118.19-21.75Q116.89-13.85 116.89-8.85 116.89-3.85 117.29 0L117.29 0 106.39 0Q104.69-7.95 104.69-17.1L104.69-17.1Q104.69-18.65 104.79-21.75L104.79-21.75Q100.54-20.5 99.59-16L99.59-16 94.64-16.3 96.44-25 129.69-25Q128.69-19.5 127.39-16L127.39-16 122.34-16.3Q122.54-17.1 122.54-17.9L122.54-17.9Q122.54-19.85 121.34-20.8 120.14-21.75 118.19-21.75ZM164.79-20.85L164.79-20.85Q164.79-11.05 162.89 0L162.89 0 150.94 0Q151.74-5.9 151.99-12.7L151.99-12.7Q149.39-14.3 146.19-14.65L146.19-14.65Q145.89-7.3 144.59 0L144.59 0 133.24 0Q133.89-4.9 133.89-11.73 133.89-18.55 132.99-25L132.99-25 146.19-25Q146.29-22.95 146.29-18.9L146.29-18.9Q149.19-18 152.04-16.45L152.04-16.45Q152.04-21.1 151.69-25L151.69-25 164.69-25Q164.79-22.2 164.79-20.85ZM170.39-25L183.89-25 183.89-23.65Q183.89-10.45 182.24 0L182.24 0 170.24 0Q171.19-4.6 171.19-10.63 171.19-16.65 170.39-25L170.39-25ZM212.99-25L218.94-25Q219.24-19.75 219.24-13.93 219.24-8.1 218.74 0L218.74 0 213.94 0Q204.24-5.2 196.14-14.15L196.14-14.15Q196.54-10.8 196.54-7.28 196.54-3.75 196.29 0L196.29 0 190.44 0Q191.44-6.15 191.44-11.38 191.44-16.6 190.94-19.65L190.94-19.65Q188.94-22.65 187.79-25L187.79-25 201.99-25Q204.09-21.4 207.71-17.57 211.34-13.75 214.64-11.6L214.64-11.6Q214.64-18.9 212.99-25L212.99-25ZM243.18-2.45L243.18-2.45 243.23-4.55Q243.23-8.1 242.63-13L242.63-13 253.43-13Q253.43-5.9 252.73 0L252.73 0Q244.98 1.1 236.68 1.1L236.68 1.1 233.48 1.1Q228.93-0.85 226.38-4.63 223.83-8.4 223.83-12.65L223.83-12.65Q223.83-18.3 228.41-22.23 232.98-26.15 241.78-26.15L241.78-26.15Q246.38-26.15 252.03-24.9L252.03-24.9Q251.18-21.5 250.08-18.9L250.08-18.9Q247.03-18.7 243.53-18.6L243.53-18.6Q244.08-20.3 244.33-21.95L244.33-21.95Q242.73-22.25 241.06-22.25 239.38-22.25 237.08-21.7L237.08-21.7Q236.28-18.3 236.28-15.55L236.28-15.55Q236.28-11.4 238.16-7.78 240.03-4.15 243.18-2.45Z" fill="#bfdbff" data-fill-palette-color="primary"></path></g></svg></g></svg></g><g transform="matrix(1,0,0,1,120.47087746331506,52.96095504639237)"><svg viewBox="0 0 154.57824507336986 26.478849373881932" height="26.478849373881932" width="154.57824507336986"><g transform="matrix(1,0,0,1,0,0)"><svg width="154.57824507336986" viewBox="0.24 -34.86 207.35 35.519999999999996" height="26.478849373881932" data-palette-color="#bfdbff"><path d="M18.07 0L0.44 0Q0.24 0 0.24-0.2L0.24-0.2 0.24-0.78Q0.24-0.98 0.59-0.98L0.59-0.98Q1.73-0.98 3.13-1.22L3.13-1.22Q7.59-1.98 7.59-4.3L7.59-4.3 7.59-30.05Q7.35-33.18 4.74-33.45L4.74-33.45Q3.96-33.54 3-33.54L3-33.54 1.61-33.54Q1.42-33.54 1.42-33.74L1.42-33.74 1.42-34.35Q1.42-34.55 1.61-34.55L1.61-34.55 2.69-34.57 6.88-34.59 15.58-34.86Q29.54-34.86 29.54-26.61L29.54-26.61Q29.54-23.12 25.93-20.8L25.93-20.8Q25.37-20.43 24.96-20.26 24.56-20.09 24.51-20.07L24.51-20.07Q27.73-18.26 29.58-16.02 31.42-13.77 31.42-10.64L31.42-10.64Q31.42-3.98 25.12-1.37L25.12-1.37Q21.88 0 18.07 0L18.07 0ZM16.67-19.04L12.79-19.04Q12.48-19.04 12.48-18.77L12.48-18.77 12.48-5.4Q12.48-3.66 14.1-2.61 15.72-1.56 17.6-1.56L17.6-1.56Q21.22-1.56 23.75-4.14 26.29-6.71 26.29-10.49 26.29-14.26 23.57-16.65 20.85-19.04 16.67-19.04L16.67-19.04ZM12.43-32.2L12.43-21.02Q12.43-20.56 12.99-20.56L12.99-20.56 18.99-20.56Q21.34-20.56 22.94-22.29 24.54-24.02 24.54-26.17L24.54-26.17Q24.54-30 22.36-31.73 20.19-33.45 16.58-33.45L16.58-33.45Q15.48-33.37 15.05-33.37 14.62-33.37 14.16-33.39 13.7-33.4 13.23-33.33 12.77-33.25 12.6-33.01 12.43-32.76 12.43-32.2L12.43-32.2ZM53.78-12.87L39.62-12.87Q39.21-12.87 39.21-11.08L39.21-11.08Q39.21-7.3 41.45-4.74 43.7-2.17 47.03-2.17 50.36-2.17 53.44-5.05L53.44-5.05Q53.49-5.1 53.56-5.1L53.56-5.1 53.68-5.1Q53.83-5.1 53.96-4.87 54.1-4.64 54.22-4.57L54.22-4.57Q51.39-1.12 47.56 0.2L47.56 0.2Q46.24 0.66 44.58 0.66 42.92 0.66 41.21-0.26 39.5-1.17 38.28-2.66L38.28-2.66Q35.69-5.76 35.69-10.39 35.69-15.01 38.51-18.82 41.33-22.63 46.26-22.63L46.26-22.63Q49.8-22.63 52.05-19.47 54.29-16.31 54.29-13.92L54.29-13.92Q54.29-12.87 53.78-12.87L53.78-12.87ZM39.89-15.5L39.89-15.21Q39.89-14.75 40.33-14.75L40.33-14.75 49.53-14.75Q50.17-14.75 50.17-15.5L50.17-15.5Q50.17-17.26 48.59-19.1 47.02-20.95 45.14-20.95L45.14-20.95Q43.31-20.95 41.81-19.29 40.31-17.63 39.89-15.5L39.89-15.5ZM70.23-18.95L70.23-16.7Q70.23-16.16 69.83-16.16 69.43-16.16 69.21-16.75L69.21-16.75Q68.62-18.36 67.46-19.6 66.3-20.85 64.59-20.85L64.59-20.85Q62.35-20.85 61.57-18.6L61.57-18.6Q61.32-17.85 61.32-17.04 61.32-16.24 62.35-15.25 63.37-14.26 65.72-12.89 68.06-11.52 69.14-10.57L69.14-10.57Q71.58-8.4 71.58-5.54 71.58-2.69 69.48-1.01 67.38 0.66 64.59 0.66L64.59 0.66Q63.11 0.66 61.9 0.26 60.69-0.15 60.51-0.15 60.32-0.15 59.92 0.26 59.52 0.66 59.27 0.66L59.27 0.66 58.86 0.66Q58.71 0.66 58.49-1.98 58.27-4.61 58.27-5.1 58.27-5.59 58.36-5.64 58.44-5.69 58.64-5.69 58.83-5.69 58.97-5.57 59.1-5.44 59.2-5.26 59.3-5.08 59.36-4.88 59.42-4.69 59.66-4.15L59.66-4.15Q61.32-0.61 64.79-0.61L64.79-0.61Q66.33-0.61 67.26-1.75 68.18-2.88 68.18-4.27 68.18-5.66 67.45-6.62 66.72-7.57 65.63-8.35 64.55-9.13 63.28-9.86L63.28-9.86Q58.34-12.74 58.34-16.24L58.34-16.24Q58.34-18.85 60.59-20.74 62.84-22.63 65.2-22.63 67.57-22.63 68.71-22.12 69.84-21.61 70.04-21.25 70.23-20.9 70.23-18.95L70.23-18.95ZM88.4-18.77L81.05-18.77Q80.9-18.77 80.9-18.55L80.9-18.55 80.9-5.08Q80.9-3.61 81.55-2.78 82.19-1.95 83.2-1.95 84.2-1.95 84.94-2.28 85.69-2.61 86.24-3 86.78-3.39 87.22-3.72 87.66-4.05 88.01-4.05 88.35-4.05 88.35-3.88L88.35-3.88Q88.35-3.3 88.22-3.13L88.22-3.13Q85.3 0.66 82.57 0.66 79.85 0.66 78.47-1.06 77.09-2.78 77.09-5.18L77.09-5.18 77.09-18.77 75.26-18.77Q74.58-18.77 74.54-19.21 74.5-19.65 74.68-19.78L74.68-19.78Q75.97-20.61 78.24-22.75L78.24-22.75Q78.48-23.02 78.9-23.56 79.31-24.1 80.11-25.02 80.9-25.95 81.32-25.95 81.73-25.95 81.73-25.61L81.73-25.61Q81.73-25.56 80.9-22.41L80.9-22.41Q80.9-21.97 81.29-21.95L81.29-21.95 87.52-21.95Q88.59-21.95 88.59-18.92L88.59-18.92Q88.59-18.77 88.4-18.77L88.4-18.77ZM119.67 0L105.07 0Q104.87 0 104.87-0.49L104.87-0.49 104.87-0.78Q104.87-0.98 105.11-0.98 105.36-0.98 105.83-1.12 106.31-1.27 106.55-1.32L106.55-1.32Q109.05-1.88 109.05-4.15L109.05-4.15 109.05-29.93Q109.05-32.18 108.22-32.8 107.38-33.42 105.21-33.42L105.21-33.42 104.11-33.42Q103.6-33.42 103.6-34.01L103.6-34.01Q103.6-34.35 103.92-34.42L103.92-34.42 104.09-34.42 117.79-34.79 120.25-34.79Q124.62-34.5 127.53-31.64 130.43-28.78 130.43-24.79 130.43-20.8 127.58-17.55L127.58-17.55Q126.33-16.11 124.77-15.22 123.21-14.33 121.69-14.31L121.69-14.31 114.37-14.6 114.17-14.6Q113.81-14.6 113.81-14.26L113.81-14.26 113.81-4.22Q113.81-2.88 114.54-2.25 115.27-1.61 117.64-1.25L117.64-1.25Q117.96-1.2 118.66-1.09 119.37-0.98 119.62-0.98 119.86-0.98 119.86-0.78L119.86-0.78 119.86-0.2Q119.86 0 119.67 0L119.67 0ZM115.78-33.56Q115.49-33.54 115.16-33.53 114.83-33.52 114.32-33.51 113.81-33.5 113.81-33.11L113.81-33.11 113.81-17.36 113.85-16.63Q113.93-16.11 114.32-16.09L114.32-16.09 116.81-15.94Q120.74-15.94 123.14-18.58 125.55-21.22 125.55-25.21 125.55-29.2 123.22-31.4 120.89-33.59 117-33.59L117-33.59Q116.66-33.59 116.37-33.58 116.08-33.57 115.78-33.56ZM148.74-17.5L148.74-17.5Q148.45-17.55 147.89-17.82L147.89-17.82Q145.86-18.75 144.71-18.75 143.56-18.75 142.31-17.32 141.05-15.89 141.05-14.75L141.05-14.75 141.05-3.71Q141.05-1.88 143.17-1.27L143.17-1.27Q144.1-1.03 144.91-0.92 145.71-0.81 145.94-0.71 146.18-0.61 146.18-0.33 146.18-0.05 145.93 0L145.93 0 133.7 0Q133.46-0.05 133.46-0.34L133.46-0.34Q133.46-0.78 134.6-0.93L134.6-0.93Q137.24-1.32 137.24-3.71L137.24-3.71 137.24-16.63Q137.24-17.65 136.12-18.04L136.12-18.04Q135.63-18.21 135.07-18.32 134.51-18.43 134.18-18.53 133.85-18.63 133.76-18.71 133.68-18.8 133.68-19.08 133.68-19.36 134.04-19.56L134.04-19.56 140.27-22.49Q140.56-22.63 140.63-22.63L140.63-22.63Q141.05-22.63 141.05-22.05L141.05-22.05 141.05-18.09Q141.05-17.8 141.2-17.8L141.2-17.8Q141.39-17.8 142.2-18.95L142.2-18.95Q144.52-22.19 146.03-22.19L146.03-22.19Q146.88-22.19 148.65-21.51 150.42-20.83 150.42-20.36L150.42-20.36Q150.42-19.8 149.86-18.65 149.3-17.5 148.74-17.5ZM163.02 0L152.13 0Q151.89-0.05 151.89-0.34L151.89-0.34Q151.89-0.78 153.03-0.93L153.03-0.93Q155.67-1.32 155.67-3.71L155.67-3.71 155.67-16.63Q155.67-17.65 154.55-18.04L154.55-18.04Q154.06-18.21 153.5-18.32 152.94-18.43 152.61-18.53 152.28-18.63 152.19-18.71 152.11-18.8 152.11-19.08 152.11-19.36 152.47-19.56L152.47-19.56 158.7-22.49Q158.99-22.63 159.06-22.63L159.06-22.63Q159.48-22.63 159.48-22.05L159.48-22.05 159.48-3.71Q159.48-1.32 162.12-0.93L162.12-0.93Q163.26-0.78 163.26-0.42 163.26-0.05 163.02 0L163.02 0ZM157.22-29.49Q156.21-29.49 155.44-30.13 154.67-30.76 154.67-31.9 154.67-33.03 155.4-33.69 156.13-34.35 157.15-34.35 158.16-34.35 158.86-33.57 159.55-32.79 159.55-31.88 159.55-30.98 158.89-30.24 158.23-29.49 157.22-29.49ZM185.36-19.7L185.36-19.7Q185.36-17.99 183.38-17.99L183.38-17.99Q182.38-17.99 181.68-18.57 180.99-19.14 180.61-19.54 180.23-19.95 179.81-20.29L179.81-20.29Q178.06-21.73 175.53-20.61 173-19.48 171.64-15.82L171.64-15.82Q170.88-13.79 170.88-11.79L170.88-11.79Q170.88-7.5 172.83-4.77 174.78-2.05 178.81-2.05L178.81-2.05Q181.82-2.05 184.21-4.74L184.21-4.74Q184.94-5.54 185.09-5.54 185.23-5.54 185.4-5.4 185.58-5.25 185.58-4.97 185.58-4.69 185.43-4.54L185.43-4.54Q181.69 0.66 176.03 0.66L176.03 0.66Q171.93 0.66 169.3-2.39 166.68-5.44 166.68-9.38L166.68-9.38Q166.7-16.65 170.19-19.85L170.19-19.85Q173.27-22.66 178.96-22.66L178.96-22.66Q182.48-22.66 183.62-21.95 184.77-21.24 185.23-20.17L185.23-20.17Q185.36-19.92 185.36-19.7ZM207.08-12.87L192.92-12.87Q192.51-12.87 192.51-11.08L192.51-11.08Q192.51-7.3 194.75-4.74 197-2.17 200.33-2.17 203.66-2.17 206.74-5.05L206.74-5.05Q206.79-5.1 206.86-5.1L206.86-5.1 206.98-5.1Q207.13-5.1 207.27-4.87 207.4-4.64 207.52-4.57L207.52-4.57Q204.69-1.12 200.86 0.2L200.86 0.2Q199.54 0.66 197.88 0.66 196.22 0.66 194.51-0.26 192.8-1.17 191.58-2.66L191.58-2.66Q188.99-5.76 188.99-10.39 188.99-15.01 191.81-18.82 194.63-22.63 199.56-22.63L199.56-22.63Q203.1-22.63 205.35-19.47 207.59-16.31 207.59-13.92L207.59-13.92Q207.59-12.87 207.08-12.87L207.08-12.87ZM193.19-15.5L193.19-15.21Q193.19-14.75 193.63-14.75L193.63-14.75 202.83-14.75Q203.47-14.75 203.47-15.5L203.47-15.5Q203.47-17.26 201.89-19.1 200.32-20.95 198.44-20.95L198.44-20.95Q196.61-20.95 195.11-19.29 193.61-17.63 193.19-15.5L193.19-15.5Z" opacity="1" transform="matrix(1,0,0,1,0,0)" fill="#bfdbff" class="slogan-text-1" data-fill-palette-color="secondary" id="text-1"></path></svg></g></svg></g></svg></g></svg></g><g></g></svg></g><defs></defs></svg><rect width="395.52" height="79.4398044202743" fill="none" stroke="none" visibility="hidden"></rect></g></svg></g></svg>