<?xml version="1.0" encoding="UTF-8"?>
<svg id="Layer_1" data-name="Layer 1" xmlns="http://www.w3.org/2000/svg" viewBox="0 0 199.04 227.76">
  <defs>
    <style>
      .cls-1 {
        fill: none;
        stroke: #fff;
        stroke-miterlimit: 10;
      }

      .cls-2 {
        fill: #f16465;
      }

      .cls-3 {
        fill: #cd5253;
      }

      .cls-4 {
        fill: #913d3e;
      }
    </style>
  </defs>
  <path class="cls-4" d="m82.64,70.32c-18.2-18.72-21.93-42.39,3.08-57.05,30.52-16.73,66.2-3.49,62.91,34.99-.75,7.45-3.08,14.67-6.64,21.15,1.03-2.47,2.13-5.22,2.89-7.76,8.25-28.09-5.28-55.45-37.33-52.2-10.63,1.04-21.25,5.2-29.05,12.61-15.37,14.22-7.54,34.35,4.15,48.27h0Z"/>
  <polygon class="cls-2" points="50.09 60.28 0 227.76 190.96 227.76 164.35 60.28 50.09 60.28"/>
  <polygon class="cls-3" points="50.09 60.28 63 53.24 171 53.24 164.35 60.28 50.09 60.28"/>
  <polygon class="cls-3" points="190.96 227.76 199.04 218.38 171 53.24 164.35 58.99 190.96 227.76"/>
  <polygon class="cls-4" points="164.35 60.28 171 53.24 182.32 134.83 170.71 109.69 164.35 60.28"/>
  <polygon class="cls-4" points="63 53.24 66.42 60.28 50.09 60.28 63 53.24"/>
  <polygon class="cls-4" points="150.52 60.28 171 53.24 164.35 60.28 150.52 60.28"/>
  <path class="cls-4" d="m68.04,68.14c-19.33-19.89-23.29-45.03,3.27-60.59,32.42-17.77,70.31-3.71,66.82,37.16-.8,7.92-3.27,15.58-7.05,22.46,1.09-2.62,2.26-5.54,3.07-8.25C142.9,29.09,128.54.03,94.49,3.48c-11.29,1.1-22.57,5.53-30.86,13.39-16.33,15.1-8.01,36.48,4.4,51.27h0Z"/>
  <circle class="cls-1" cx="131.18" cy="67.13" r="1.42"/>
  <circle class="cls-1" cx="67.48" cy="67.13" r="1.42"/>
</svg>