<?xml version="1.0" encoding="UTF-8"?>
<svg id="Layer_1" data-name="Layer 1" xmlns="http://www.w3.org/2000/svg" viewBox="0 0 727.82 403.06">
  <defs>
    <style>
      .cls-1 {
        fill: #555655;
      }

      .cls-2 {
        fill: #ef8d26;
      }

      .cls-3 {
        fill: #3c3c41;
      }

      .cls-4 {
        fill: #282b45;
      }

      .cls-5 {
        fill: #a87861;
      }

      .cls-6 {
        fill: #d4e2d5;
      }

      .cls-7 {
        fill: #304664;
      }

      .cls-8 {
        fill: #efaa88;
      }

      .cls-9 {
        fill: #1f2338;
      }

      .cls-10 {
        fill: #e1a160;
      }

      .cls-11 {
        fill: #c96444;
      }

      .cls-12 {
        fill: #c3b2ab;
      }

      .cls-13 {
        fill: #161825;
      }

      .cls-14 {
        fill: #d47d28;
      }

      .cls-15 {
        fill: #eddad3;
      }

      .cls-16 {
        fill: #e45354;
      }

      .cls-17 {
        fill: #444;
      }

      .cls-18 {
        fill: #323757;
      }

      .cls-19 {
        fill: #fdc05e;
      }

      .cls-20 {
        fill: #a77961;
      }

      .cls-21 {
        fill: #6898d0;
      }

      .cls-22 {
        fill: #dccbc4;
      }

      .cls-23 {
        fill: #173342;
      }

      .cls-24 {
        fill: #a3aea3;
      }

      .cls-25 {
        fill: #4770a8;
      }

      .cls-26 {
        fill: #d79e42;
      }

      .cls-27 {
        fill: #373636;
      }

      .cls-28 {
        fill: #d0beb6;
      }

      .cls-29 {
        fill: #efa986;
      }

      .cls-30 {
        fill: #5b83c3;
      }

      .cls-31 {
        fill: #e8744e;
      }

      .cls-32 {
        fill: #535353;
      }

      .cls-33 {
        fill: #c58c71;
      }

      .cls-34 {
        fill: #c17229;
      }

      .cls-35 {
        fill: #efaa87;
      }

      .cls-36 {
        fill: #588ac8;
      }

      .cls-37 {
        fill: #ea4748;
      }

      .cls-38 {
        fill: #2a2c47;
      }

      .cls-39 {
        fill: #404a8d;
      }

      .cls-40 {
        fill: #466ba5;
      }

      .cls-41 {
        fill: #c3b2ad;
      }

      .cls-42 {
        fill: #316c8d;
      }

      .cls-43 {
        fill: #4a78b6;
      }

      .cls-44 {
        fill: #565f97;
      }
    </style>
  </defs>
  <g>
    <path class="cls-15" d="m142.58,135.97s-22.75,10.35-30.83,8.36c-3.74-.92-8.66-6.08-13.33-12.14-1.54-2-3.05-4.09-4.49-6.17,0,0,0,0,0,0-5.74-8.28-10.23-16.23-10.23-16.23,0,0-16.96-19.88-3.35-28.73,0,0,4.94-1.85,9.47,3.01,4.54,4.86,9.86,15.03,11.05,17.62,1.19,2.59,17.85,26.62,18.71,27.16.86.54,8.14-1.37,13.98-1.86,9.52-.79,7.63-1.2,7.63-1.2l1.4,10.18Z"/>
    <rect class="cls-31" x="76.75" y="105.19" width="65.83" height="48.42"/>
    <rect class="cls-11" x="76.75" y="105.19" width="65.83" height="21.74"/>
    <path class="cls-31" d="m17.63,245.29l-5.34-.93c-8.07-1.41-13.47-9.09-12.07-17.17l6.07-34.77c1.41-8.07,9.1-13.47,17.17-12.07l5.34.93c8.07,1.41,13.47,9.09,12.07,17.17l-6.07,34.77c-1.41,8.07-9.1,13.47-17.17,12.07Z"/>
    <path class="cls-29" d="m144.34,115.48s-8.15-1.84-10.36-.13c-2.2,1.71.7,2.53.7,2.53,0,0-2.86-.86-3.76,1.3-.89,2.16,2.56,2.95,2.56,2.95,0,0-2.34-.08-2.4,2.37s2.94,2.46,2.94,2.46c0,0-3.32,1.69-.94,3.69,4.03,3.38,9.96,2.08,9.96,2.08,0,0,1.39-.45,1.29-2.81,0,0,3.51-.87,1.98-4.68,0,0,2.75-3.04-.15-4.93,0,0,2.73-3.41-1.82-4.83Z"/>
    <path class="cls-9" d="m102.04,380.3s6.28,6.6,12.66,7.98c6.38,1.38,10.84,3.14,10.89,6.93.05,3.79-18.35,6.28-25.65,2.46-10.89-5.7-12-3.98-13.21-6.83-1.21-2.85,1.45-10.46,1.37-11.36-.1-1.12,13.94.82,13.94.82Z"/>
    <path class="cls-42" d="m101.34,377.15s.83,3.09.71,3.16c-.12.06-14.37,1.66-13.94-.82.35-2.01.85-4.2.85-4.2l12.39,1.86Z"/>
    <path class="cls-9" d="m31.09,382.02s4.62,6.43,10.8,7.91c6.09,1.46,10.04,4.24,10.34,7.92.3,3.68-14.37,8.5-24.67,2.03-6.77-4.25-9.3-4-10.66-6.7-1.36-2.7.71-10.26.58-11.14-.17-1.08,13.61-.03,13.61-.03Z"/>
    <path class="cls-42" d="m30.9,378.85s.3,3.11.19,3.18c-.12.07-13.69,2.47-13.61.03.06-1.94.86-4.36.86-4.36l12.56,1.16Z"/>
    <path class="cls-18" d="m86.97,191.56s6.6,47.93,9.29,64.13c3.15,18.94,4.22,34.6,5.1,44.4,1.1,12.33.49,75.44,1.27,79.05.77,3.61-15.6,1.73-15.6,1.73,0,0-12.01-82.28-15.3-95.41-3.06-12.23-11.5-62.65-14.29-59.31-2.8,3.34-11.85,60.77-13.92,70.42-2.07,9.64-10.44,85.57-10.44,85.57,0,0-13.92,3.02-17.72,0,0,0,.85-67.7,2.17-85.79.5-6.89-4.36-82.5,7.29-112.99,6.16-16.11,62.15,8.19,62.15,8.19Z"/>
    <path class="cls-15" d="m67.61,76.62s17.46,3.61,19.53,5.44c2.25,1.95,6.22,21.08,6.45,26.4.24,5.33-2.1,27.58-4.35,35.86-2.25,8.29-1.74,51.53-.73,58.34,0,0-34.19,7.09-68.75,2.59,0,0,5.15-37.8,3.76-49.16-1.77-14.55-6.04-48.06-6.04-48.06,0,0,4.62-22.56,7.7-25.17,3.08-2.6,24.47-6.84,24.47-6.84l17.96.58Z"/>
    <path class="cls-12" d="m28.73,122.16s-3.3,21.46-3.07,22.83c.23,1.38-14.93-4.31,3.07-22.83Z"/>
    <path class="cls-29" d="m60.39,22.63s21-7.77,19.69,20.14c-1.31,27.91-6.23,30.75-20.05,26.85-13.82-3.9-14.97-21.51-16.77-29.99-1.8-8.47,10.27-15.78,17.13-17Z"/>
    <path class="cls-29" d="m71.07,81.04s-10.91,8.85-21.42-5c0,0,.46-11.23-2.75-21.73-3.21-10.49,21.99,13.99,21.99,13.99-.26.19-.32,1.23-.16,2.7.13,1.24.4,2.78.81,4.34.92,3.51.71,2.89,1.54,5.7Z"/>
    <path class="cls-23" d="m46.18,53.48s-.06-7.46,3.04-8.14c3.1-.69,4.7,3.62,4.7,3.62l2.5-.13s-2.23-7.56.72-9.29,20.64-.21,22.86-2.75c2.22-2.54-1-17.65-5.82-19.13-4.82-1.48-18-4.49-26.37,2.96,0,0-7.5.05-7.48,9.03.01,5.93,3.34,19.79,5.86,23.83Z"/>
    <path class="cls-20" d="m69.53,75.33c-16.28-2.74-18.71-11.99-18.75-12.14,6.33,8.16,17.94,7.8,17.94,7.8.13,1.24.4,2.78.81,4.34Z"/>
    <path class="cls-29" d="m52.73,42.17c-.93-2.46-6.17-2.15-5.63,1.75.54,3.9,4.87,9.9,6.6,8.78,1.74-1.13.3-7.14-.97-10.53Z"/>
    <path class="cls-29" d="m43.98,77.23s9.85,19.9,24.34,18.29c14.49-1.61,6.09-15.5,4.71-17.71,0,0-8.7-5.58-29.05-.58Z"/>
    <path class="cls-12" d="m25.67,144.99s16.72,17.77,22.2,22.1c0,0-20.04-26.63-21.57-29.49,0,0-5.22.67-.63,7.39Z"/>
    <path class="cls-31" d="m86.92,81.79c-2.76-1.62-5.59-1.91-5.59-1.91.07.21,7.66,23,2.89,50.22-6.3,35.93-30.5,66.19-70,87.51l2.29,4.25c22.79-12.3,40.65-27.4,53.1-44.87,9.99-14.03,16.52-29.61,19.41-46.29,4.92-28.4-1.78-48.01-2.09-48.91Z"/>
    <path class="cls-29" d="m64.5,194.28s-1.61-.14-2.29-.54c0,0-1.17-.83-2.04-1.37-.28-.17-.52-.31-.69-.39-.7-.32-2.33-.8-3.8-2.02-1.47-1.23-6.45-8.15-6.45-8.15l2.98-3.75,2.29-3.91s11.59,1.79,13.09,2.78c.15.1.29.2.41.3,1.19.96,1.67,2.17,2.24,2.74.21.21,2.12,2.46,1.97,3.33-.21,1.21-.84,1.96-1.61,2.29,0,0-.51,2.34-1.78,3.35,0,0-.4,2.18-2.34,2.98,0,0-.66,2.16-1.98,2.37Z"/>
    <path class="cls-15" d="m34.79,82.4c2.29.89,4.72,6.43,2.91,17.29-1.94,11.66-5.78,16.63-7.33,19.36-1.55,2.72-10.05,19.52-8.52,21.73,1.53,2.21,15.97,16.46,16.81,17.62.84,1.16,16.96,15.76,16.96,15.76l-8.21,11.47s-34.82-27.2-37.54-29.91c-2.72-2.72-10.84-8.42-7.83-17.91,3.05-9.64,8.54-32.21,9.51-33.98.97-1.77,8.1-27.29,23.24-21.42Z"/>
  </g>
  <g>
    <path class="cls-3" d="m515.26,7.37s-13.91-.45-18.34,10.41c-4.44,10.86-1.09,19.19.18,23.14,3.31,10.33,3.58,14.08,1.98,20.31-1.42,5.52-2.72,8.38-4.36,13.54-1.64,5.17,1.09,4.59,1.33,4.97.24.38,53.22,11.25,53.22,11.25,0,0-1.68-12.92-5.19-18.01-2.57-3.74-6.43-5.01-3.52-16.08,2.91-11.07,4.75-16.21,3.12-24.24-1.89-9.3-3.07-15.12-12.26-21.22-5.54-3.68-11.76-4.49-16.15-4.09Z"/>
    <path class="cls-18" d="m499.6,145.79c-.44,7.61-2.19,15.64-5.81,23.88,0,0-11.37,4.47-16.85-2.31-2.16-2.67-4.05-11.65-4.84-23.1-1.23-17.63,4.23-42.83,11.15-58.2,0,0,18.29,26.83,16.36,59.74Z"/>
    <path class="cls-18" d="m499.6,145.79c-.44,7.61-2.19,15.64-5.81,23.88,0,0-11.37,4.47-16.85-2.31-2.16-2.67-4.05-11.65-4.84-23.1l27.51,1.54Z"/>
    <path class="cls-29" d="m598.37,74.16s2.11-4.91,2.9-6.03c.78-1.12-1.66-3.55-3.19-.63-1.53,2.92-2.47,4.79-2.47,4.79l2.76,1.88Z"/>
    <path class="cls-32" d="m596.23,78.78l7.17-21.17c.47-1.39-.44-2.87-1.95-3.15l-10.79-2.03c-1.35-.25-2.68.55-3,1.83l-5.45,21.73c-.35,1.38.61,2.75,2.07,2.98l9.07,1.46c1.26.2,2.48-.51,2.87-1.66Z"/>
    <path class="cls-29" d="m599.16,77.36s.91-1.83-2.24-4.9c-4.19-4.08-10.06-8.79-11.45-8.58-2,.29-1.61,1.8,1.21,3.92,2.82,2.13,3.75,2.82,3.75,2.82,0,0-6.05-2.76-7.74-2.54-1.68.22-2.4,1.85-1.47,2.48.93.63,3.29,1.64,3.29,1.64,0,0-2.7-.83-3.36.09-.49.69-1,1.73,1.35,3.06,0,0-2.41,1.21-.29,3.26,2.12,2.05,2.39,3.3,2.06,5.98-.33,2.68,1.45,6.89,1.45,6.89l8.17-.87s1.5-6.99,2.56-8.62c1.06-1.63,2.69-4.63,2.69-4.63Z"/>
    <path class="cls-15" d="m547.65,121.82c3.74,5.34,8.63,10.98,12.58,10.93,2.55-.03,34.58-39.31,34.57-41.28-.02-2.23-11.79-5.3-11.79-5.3,0,0-5.62,9.28-10.78,13.19-5.16,3.91-11.45,12.27-12.75,13.13-1.3.86-5.98-8.73-5.98-8.73-1.55-4.62-3.46-12.8-7.97-20.39-4.51-7.58-14.64-10.87-14.64-10.87-19.72,8.44,11,40.03,11,40.03,0,0,3.97,6.84,5.76,9.28Z"/>
    <path class="cls-15" d="m526.26,64.9s15.5,10.64,20.67,36.03c0,0-14.55-27.14-19.29-31.98,0,0-2-1.82-1.37-4.04Z"/>
    <path class="cls-15" d="m550.4,107.42s-.2,58.89,0,72.47c.2,13.58-18.07-32.64-18.07-32.64,0,0,9.74-28.81,18.07-39.84Z"/>
    <path class="cls-41" d="m469.14,248.9s44.25-4.6,71.3,10.19c27.05,14.79-25.29-43.8-25.29-43.8,0,0-45.4,17.03-46.01,33.61Z"/>
    <path class="cls-15" d="m564.24,377.26s2.34,5.94,5.59,7.35c3.26,1.41,10.63,7.93,13.59,8.4,2.96.47,10.06,1,10.46,4.57.39,3.57-.37,6.81-14.67,4.93-14.3-1.88-27.82-8.18-27.82-8.18,0,0-2.89-13.81,1.76-20.62,4.65-6.82,11.09,3.55,11.09,3.55Z"/>
    <path class="cls-29" d="m564.24,377.26l-2.68-8.52h-10.22v9.08s15.46,5.53,12.9-.56Z"/>
    <path class="cls-15" d="m474.57,361.22s1.01,6.15,2.59,8.02c1.59,1.86,3.88,10.72,7.12,13.55,3.24,2.83,11.17,9.2,8.74,12.38-2.43,3.19-19.41-.91-25.48-10.76-6.07-9.85-8.14-10.97-7.37-13.65.77-2.68,6.53-12.97,6.39-14.22-.14-1.25,8.01,4.66,8.01,4.66Z"/>
    <path class="cls-29" d="m477.05,356.79c-.1,0-2.05,2.79-2.48,4.43-.43,1.63-4.19,2.28-7.2-1.27,0,0-.94-1.28-.81-3.4.13-2.11,2.67-7.11,2.67-7.11l7.82,7.35Z"/>
    <path class="cls-38" d="m519.34,216.85c.53,2.46,3.95,12.73,7.77,24.15h0c1.1,3.27,2.23,6.64,3.33,9.94,2.41,7.2,4.7,14.1,6.27,19.07.86,2.7,1.5,4.83,1.83,6.13,2.2,8.58-.27,22.04-1.07,33.29-.8,11.25,11.93,66.59,11.93,66.59,3,1.33,16.32-2.2,16.32-2.2-2.2-4-5.16-72.89-3.96-77.28,1.2-4.39,2-16.59.8-21.35-.25-.98-.36-2.27-.39-3.82-.1-6.02,1.2-15.96,1.99-26.87,1-13.73-4.6-47.85-5.4-50.9-.07-.28-.19-.68-.34-1.16-1.47-4.79-6.22-18.37-6.22-18.37-9.63-2.73-16.88-3.22-22.29-2.17-7.16,1.39-11.1,5.48-13.07,10.68-4.71,12.41,1.8,31.09,2.49,34.28Z"/>
    <path class="cls-38" d="m464.63,355.06l13.15,5.32c1.65-7.62,38.36-60.6,40.78-66.51,2.41-5.91,4.99-17.35,4.99-21.54,0-.75.06-2.01.17-3.65.43-6.36,1.65-18.35,3.4-27.68.33-1.74.67-3.39,1.03-4.89,1.94-8.05,2.28-35.55,2.3-51.72.01-7.2-.04-12.15-.04-12.15,0,0-.17-.13-.48-.35-3.65-2.63-27.06-18.67-35.22-3.68-2.16,3.96-3.56,8.21-4.42,12.65-2.62,13.59-4.57,30.98-2.45,44.92,1.81,11.93,5.72,25.43,8.39,37.71,1.45,6.71,2.74,13.95,1.11,16.65-4.6,7.63-9.1,14.08-18.41,40.99-3.03,8.75-14.28,33.92-14.28,33.92Z"/>
    <path class="cls-37" d="m498.43,144.69c-2.14,8.13-13,48.76-12.73,51.17.1.91,12.02,2.81,22.97,4.64,18.21,3.05,41.73-3.45,49.76-8.08,0,0,0,0,0,0-.17-.6-10.93-38.87-11.73-43.29-.8-4.45.97-21.13,1.37-25.83.15-1.75.93-4.24,1.85-6.92h0c1.55-4.55,3.49-9.65,3.38-12.62-.08-2.25-.67-4.36-1.62-6.49h0c-1.09-2.42-2.65-4.87-4.49-7.59-1.07-1.59-2.2-3.21-3.33-4.78-3.67-5.13-7.34-9.79-9.14-11.39-1.34-1.19-2.59-2.11-3.68-2.8,0,0-.01,0-.01,0-1.59-1.01-2.82-1.54-3.4-1.77h0c-.25-.1-.38-.14-.38-.14l-15.88-2.41s-1.69.58-4.08,1.36c-2.93.95-6.91,2.19-10.09,2.98,0,0,0,0,0,0-.49.12-.96.24-1.41.33,0,0-2.71.96-5.58,4.04-2.73,2.93-5.62,7.74-5.7,17.51-.07,8.61,10.32,29.19,11.92,35.55,1.6,6.36,4.14,8.39,2,16.52Z"/>
    <path class="cls-15" d="m531.04,70.71l9.2,13.82,8.49,12.75c-.02-.07-.59-2-1.55-7.59-.18-1.06-.38-2.25-.59-3.59-.06-.4-.15-.79-.27-1.18h0c-3.64-7.98-14.87-14-15.29-14.2,0,0-.01,0-.01,0Z"/>
    <path class="cls-29" d="m507.91,68.04s.45-17.91-1.15-20.79c-1.6-2.88,19.39,11.99,19.39,11.99,0,0-.07.7-.1,1.21,0,.1-.01.18-.01.26-.04,1.68-.02,1.93.14,3.36.02.17.04.37.06.58.25,2.32.91,4.84,1.96,6.93,2.31,4.6-20.28-3.53-20.28-3.53Z"/>
    <path class="cls-15" d="m546.3,84.82h0s.49.97.89,4.86l-3.33-4.78s-5.94-8.12-7.98-10.23c-2.04-2.11-4.83-3.96-4.83-3.96,0,0,11.69,5.35,15.25,14.11Z"/>
    <path class="cls-29" d="m527.25,68.81s10.65,15.59,7.04,16.96c-3.6,1.36-23.11-1.82-31.4-16.63,0,0,12.4-6.06,24.36-.33Z"/>
    <path class="cls-7" d="m548.05,123.56c.02-.21.04-.33.04-.36,0,.01-.01.04-.02.1,0,.06-.02.14-.02.26Z"/>
    <path class="cls-15" d="m502.07,96.07s-13.57-4.6-17.79-4.91c0,0,3.16-23.01,17.17-20.7,14.01,2.31.62,25.6.62,25.6Z"/>
    <path class="cls-37" d="m526.42,66s-.82,2.96-18.45-2.2l-.83,3.81s-2.33.33-8.7,2.81c0,0,31.8,28.55,36.6,16.9,4.8-11.65-7.41-18.37-7.41-18.37l-1.21-2.95Z"/>
    <path class="cls-37" d="m527.63,68.94l24.04,28.33c-1.09-2.42-2.65-4.86-4.49-7.59-1.07-1.59-2.2-3.21-3.33-4.78-3.67-5.13-7.34-9.79-9.14-11.39-1.34-1.19-2.59-2.11-3.68-2.8,0,0-.01,0-.01,0-1.59-1.01-2.82-1.54-3.4-1.77h0Z"/>
    <path class="cls-15" d="m548.09,123.2c1.55-4.55,5.72-15.01,5.41-19.44-.15-2.25-.86-4.36-1.82-6.49h0c-1.09-2.42-2.65-5.12-4.49-7.84-1.07-1.59-3.01-4.28-4.13-5.85-3.67-5.13-6.53-8.51-8.33-10.12-1.34-1.19-2.6-2.19-3.69-2.88,0,0,0,0,0,0-1.59-1.01-2.82-1.41-3.4-1.64h0s25.33,21.78,20.46,54.26Z"/>
    <path class="cls-29" d="m493.55,165.73s1.73,2.56,2.81,3.06c1.07.51,2.3,2.9,2.3,2.9l-6.87,4.8s-2.51-5.66-5.66-7.43c-3.15-1.77,7.42-3.34,7.42-3.34Z"/>
    <path class="cls-15" d="m483.15,84.07s5.62-15.39,17.28-10.57c11.2,4.62-3.9,23.4-5.25,25.7-1.35,2.3-14.02,20.81-15.29,23.3-4.03,7.89-2.68,11.8-1.31,15.58,4.6,12.69,13.59,24.55,15.78,26.6,2.19,2.04-6.75,9.4-10.28,7.09-4.7-3.07-13.13-19.06-15.44-22.69-2.83-4.45-9.98-12.46-4.92-26.38,3.41-9.37,19.44-38.62,19.44-38.62Z"/>
    <path class="cls-22" d="m500.46,166.99l-14.75,11.28s11.57,16.57,17.12,9.6c5.55-6.96-2.37-20.88-2.37-20.88Z"/>
    <path class="cls-15" d="m531.18,103.28s0,0,0,0c-2.43-24.76-23.21-39.73-23.21-39.73l-.8,3.68h0c-21.38,5.75-21.89,10.28-22.88,23.92-.38,5.24,1.16,12.22,3.14,19.74.81,3.05,1.68,6.19,2.54,9.33,2.52,9.3,4.83,18.66,4.38,25.98-.98,15.91-45.61,85.91-45.61,85.91,0,14.79,38.67,35.97,38.67,35.97-1.81-19.5,47.25-145.16,43.77-164.81Z"/>
    <path class="cls-41" d="m489.96,120.23h0c6.66-7.45,10.58-29.23,10.58-29.23-3.97,10.64-13.12,19.9-13.12,19.9h0c.81,3.05,1.68,6.19,2.54,9.33Z"/>
    <path class="cls-13" d="m527.11,240.99h0c1.1,3.27,2.23,6.64,3.33,9.94,5.36-19.7,6.28-41.66,6.28-41.66-1.62,12.25-9.62,31.72-9.62,31.72Z"/>
    <path class="cls-18" d="m488.12,138.09l-1.39-2.15c.2-.12,14.93-8.95,17.72-24.84,2.03-11.53-2.89-24.14-14.03-37.09l2.36-1.54c11.66,13.55,16.45,26.78,14.28,39.07-3.01,17.05-18.29,26.16-18.94,26.54Zm-.69-1.08l-.69-1.08h0l.69,1.08Z"/>
    <path class="cls-18" d="m490.42,74.02s.71-.98,2.36-1.54c0,0-.31,1.49-2.36,1.54Z"/>
    <path class="cls-35" d="m526.1,14.32s15.34,9.54,10.36,32.6-23.1,10.38-25.07,9.07c-1.97-1.31-8.05-15.74-8.28-22.04-.22-5.93-3.47-29.69,23-19.64Z"/>
    <path class="cls-3" d="m525.05,18.95c-1.6-.45-7,9.49-9.91,11.94-2.91,2.45-8.25,8.61-8.77,15.36-.52,6.75-6.5-14.74-4.43-22.72,2.07-7.98,4.83-19.67,23.52-10.39,18.7,9.27,13.86,25.86,13.86,25.86,0,0-6.19-17.77-14.27-20.05Z"/>
    <path class="cls-35" d="m512.09,34.86c-.5-2.73-6.82-5.04-6.72-.94.09,4.1,3.58,8.83,5.56,8.53,1.97-.3,1.62-5.08,1.17-7.6Z"/>
    <path class="cls-5" d="m526.17,64.07h-.03c-11.11-.13-14.75-8.07-14.75-8.07,7.69,5.53,13.85,4.61,14.66,4.46,0,.1-.01.18-.01.26-.04,1.68-.02,1.93.14,3.36Z"/>
  </g>
  <g>
    <path class="cls-44" d="m257.38,381.11s10.48-2.22,10.84-2.55c.36-.33,2.55-4.52,4.18-3.82,1.64.7,1.75,5.75,3.35,6.58,1.6.83,14.3,9.08,15.87,10.6,1.57,1.52,11.06.44,12.19,3.1,1.14,2.66,1.34,9-12.86,7.76-14.2-1.24-30.35,1.35-33.43-.27-3.08-1.62-1.05-17.3-.14-21.4Z"/>
    <path class="cls-44" d="m172.66,375.27s10.7-.51,11.11-.78c.41-.26,3.24-4.05,4.74-3.1,1.51.95.81,5.96,2.26,7.03,1.45,1.07,12.66,11.26,13.97,13,1.31,1.75,10.84,2.2,11.54,5.01.7,2.81-.12,9.09-13.94,5.6-13.82-3.5-30.18-3.52-32.96-5.62-2.78-2.09,1.73-17.24,3.28-21.14Z"/>
    <polygon class="cls-29" points="172.66 375.27 175.5 365.85 188.26 367.68 186.5 376.16 172.66 375.27"/>
    <polygon class="cls-29" points="256.58 375.98 257.38 381.11 271.27 378.55 270.39 370.87 256.58 375.98"/>
    <path class="cls-18" d="m223.86,211.3s-2.15,18.41-4.52,37.27c-.54,4.29-1.09,8.61-1.62,12.74-1.77,13.56-3.4,25.09-4.1,27.11-1.88,5.45-20.43,88.69-20.43,88.69,0,0-23.16,1.11-23.85-1.12,0,0,17.22-91.97,16.97-95.06-.26-3.09,2.77-90.16,2.77-90.16,0,0,33.75,15.51,34.78,20.52Z"/>
    <path class="cls-18" d="m244.9,187.31s15.81,82.7,17.35,89.22c1.54,6.52,14.47,102.31,14.47,102.31,0,0-9.27,6.19-22.83,5.51,0,0-20.29-102.46-21.94-105.59-6.39-12.12-27.91-69.22-31-77.63-3.09-8.4-12.25-19.9-12.25-19.9,0,0,24.69-10.61,56.2,6.07Z"/>
    <path class="cls-28" d="m235.6,69.32s8.82,17,10.4,27.22c1.58,10.22-5.67,43.46-5.48,49.25.51,15.58,5.75,48.71,5.75,48.71l-47.79,2.98s-4.05-15.96-6.71-35.46c-2.66-19.5.57-36.31.29-47.65-.98-38.68,28.84-51.85,28.84-51.85l14.7,6.79Z"/>
    <path class="cls-39" d="m245.43,188.94l1.42,8.54s-35.46,2.44-58.08,2.23l.47-7.63s33.88-.52,56.2-3.15Z"/>
    <path class="cls-29" d="m254.83,21.12s6.51,8.67,4.21,10.52c-1.9,1.53,4.02,10.11,4.84,11.53.82,1.42-3.38,3.18-4.16,4.3-.78,1.11-1.72,13.51-5.27,14.42-3.54.9-20.6-2.29-25.71-6.21-5.11-3.92-11.86-24.11-10.23-33.3,1.63-9.19,24.84-16.38,36.31-1.25Z"/>
    <path class="cls-29" d="m243.3,60.82s-.33,1.14-.74,2.73c-.17.67-.37,1.43-.58,2.26-.16.63-.33,1.3-.49,1.99-1.05,4.34-2.15,9.59-2.04,12.1.19,4.69-18.54-17.37-18.54-17.37,0,0,6.14-14.84,7.96-31.7,1.81-16.86,14.43,29.98,14.43,29.98Z"/>
    <path class="cls-18" d="m256.16,23.01s3.66-10.98-6.92-17.11c-10.58-6.14-25.98,9.76-27.87,10.56s-12.6,3.11-4.33,21.94c7.47,17.01,6.98,15.19,6.98,15.19,0,0,3.29-8.8,5.11-10.59,2.84-2.79,9.91-3.29,9.91-3.29,0,0-4.66-8.34.35-10.37,5.01-2.04,11.21-7.48,16.77-6.32Z"/>
    <path class="cls-29" d="m232.73,35.48c-.64-1.14-2.91-6.13-6.92-2.4-4.01,3.73,4.73,12.46,5.53,12.47.8,0,6.79-.46,1.39-10.08Z"/>
    <path class="cls-20" d="m243.3,60.82s-.33,1.14-.74,2.73c-.17.67-.37,1.43-.58,2.26-9.62-5.12-12.38-9.47-12.46-9.61,4.48,2.32,13.78,4.62,13.78,4.62Z"/>
    <path class="cls-19" d="m243.01,104.56c-.73,3.59-1.37,7.21-1.93,10.83h0c-1.24,7.97-2.1,15.97-2.68,23.72-.21,2.76-.38,5.5-.52,8.2-1.66,32.1-13.31,66.02-13.31,66.02,0,0-27.43-.57-33.86-3.83,0,0-3.25-42.32-.46-78.06.21-2.76.47-5.52.77-8.26h0c3.15-28.96,8.31-57.37,29.88-60.64.43.38,25.93,23.18,22.11,42.03Z"/>
    <path class="cls-19" d="m190.07,133.99s.55,34.84-16.49,69.47c-2.08,4.23,33.22,8.91,33.22,8.91l-16.73-78.39Z"/>
    <path class="cls-31" d="m229.26,245.76l-58.51-9.28c-4.99-.79-8.15-5.79-6.73-10.63l11.83-40.32c1.2-4.1,5.29-6.63,9.49-5.89l53.07,9.35c4.5.79,7.54,5.05,6.82,9.56l-6.38,40.24c-.73,4.57-5.02,7.69-9.59,6.96Z"/>
    <path class="cls-31" d="m242.59,213.29l-70.79-8.47.22-1.58c.03-.22,3.2-22.67,10.84-50.49,7.06-25.73,19.5-61.47,38.67-85.63l1.26-1.59,1.22,1.63c.22.29,5.4,7.38,10.28,28.82,4.45,19.58,9.52,55.52,8.34,115.58l-.03,1.73Zm-67.23-11.2l64.16,7.68c1.03-58.33-3.86-93.4-8.18-112.6-3.41-15.17-7-23.07-8.75-26.31-18.05,23.71-29.9,57.91-36.71,82.72-6.43,23.41-9.66,42.96-10.52,48.51Z"/>
    <path class="cls-19" d="m219.98,62.69l1.95-2.85s14.76,11.38,19.81,31.67c0,0-10.86-20.83-21.76-28.82Z"/>
    <path class="cls-26" d="m216.92,97.36s-5.64,31.55-3.72,34.51c1.91,2.96,14.74,21.66,14.74,21.66,0,0-57.6-14.44-11.02-56.17Z"/>
    <path class="cls-8" d="m249.42,198.05s-1.95-.65-2.66-1.36c0,0-1.2-1.37-2.11-2.3-.29-.29-.55-.54-.73-.68-.77-.6-2.63-1.68-4.07-3.64-1.44-1.95-5.83-9.37-5.83-9.37l5.66-4.86,3.54-5.41s13.67,5.51,15.22,7.18c.15.16.29.33.42.5,1.18,1.54,1.41,3.18,1.93,4.05.19.32,1.88,3.67,1.43,4.69-.62,1.42-1.63,2.16-2.68,2.34,0,0-1.34,2.73-3.2,3.58,0,0-1.15,2.56-3.77,2.96,0,0-1.46,2.47-3.15,2.32Z"/>
    <path class="cls-19" d="m223.7,82.43s-14.71,29.37-16.9,47.57c-.69,5.71,40.38,39.86,40.05,42.06-.33,2.2-12.06,12.17-12.06,12.17,0,0-50.09-43.22-50.42-46.82-.33-3.6,10.21-49.96,16.47-59.63,4.7-7.25,13.92-16.74,20.31-13.63,8.6,4.17,2.55,18.28,2.55,18.28Z"/>
  </g>
  <g>
    <path class="cls-6" d="m640.45,380.5s-2.8.77-5.75,5.88c-1.4,2.43-6.6,3.06-7.54,11.63-.74,6.72,11.96,4.88,16.65,4.64,4.69-.25,5.05-3.86,7.02-7.69,1.98-3.83,3.41-3.78,3.78-6.87.37-3.09-1.17-8.03-1.17-8.03l-12.99.44Z"/>
    <path class="cls-24" d="m645.94,384.14c-.05,0-4.99-1.05-7.21-.65l-.1-.54c2.33-.42,7.22.61,7.42.66l-.11.54Z"/>
    <path class="cls-24" d="m644.87,385.86s-4.99-1.05-7.21-.66l-.1-.54c2.33-.42,7.22.61,7.42.66l-.11.54Z"/>
    <path class="cls-24" d="m643.59,387.57c-.05,0-4.99-1.05-7.21-.65l-.1-.54c2.33-.42,7.22.61,7.42.66l-.11.54Z"/>
    <path class="cls-24" d="m637.79,401.1c-7.08,0-9.83-2.08-9.98-2.2l.34-.44s4.53,3.39,16.74,1.48l.08.54c-2.78.44-5.16.61-7.18.61Z"/>
    <path class="cls-16" d="m705.08,161.4s18.81,19.52,16.97,23.76c-1.84,4.23-15.79,15.27-15.79,15.27l-14.31-20.98,13.12-18.05Z"/>
    <polygon class="cls-29" points="637.29 176.46 640.18 182.58 645.88 174.02 644.78 169.6 637.29 176.46"/>
    <path class="cls-6" d="m684.12,380.5s2.75.77,5.69,5.88c1.4,2.43,6.6,3.06,7.55,11.63.74,6.72-11.96,4.88-16.65,4.64-4.69-.25-5.05-3.86-7.02-7.69-1.97-3.83-3.41-3.78-3.78-6.87-.37-3.09.95-8.04.95-8.04l13.26.45Z"/>
    <path class="cls-29" d="m684.53,376.57l-.41,3.92s-6.28,1.93-13.26-.45l.04-4.38,13.62.9Z"/>
    <path class="cls-29" d="m640.04,376.57l.41,3.92s6.01,1.94,12.99-.44l.23-4.39-13.62.9Z"/>
    <path class="cls-1" d="m711.04,289.9c0,8.34-24.8,86.82-24.8,86.82-.83,2.78-14.17,1.77-16.94.38-2.78-1.39,18.41-82.48,17.89-90.88-.51-8.41-15.32-67.16-17.76-66.88-2.44.28-5.67,60.69-9.29,79.53-1.26,6.56-5.44,78.33-5.44,78.33-6.11,3.61-15.88,1.07-15.88,1.07,0,0-6.03-81.6-5.19-83.82.83-2.22-.46-16.35-.18-37.18.21-15.54,3.28-52.01,6.2-74.15.1-.78.73-2.54.83-3.25.57-4.27,1.18-7.3,1.38-8.8.09-.65.43-1.84.43-1.84.78-.36,0-.27.85-.58,20.35-7.31,59.59.43,59.59.43,0,0,.02.19.07.56.05.44.13,1.13.24,2.03.23,1.93.56,4.81.95,8.15,0,.02,0,.05,0,.07.01.1.02.2.03.31,1.37,11.89,3.31,29.3,3.13,31.11-.28,2.78,3.89,70.28,3.89,78.62Z"/>
    <path class="cls-29" d="m726.9,132.81c-.93,14.82-47.21-11.85-47.21-11.85,0,0,3.64-9.55,4.91-9.83,1.93-.42,25.94,11.37,25.57,6.37-.24-3.28.11-5.69-.22-9.4v-.07c-.17-1.9-.29-3.19-.29-3.19,0,0-4.41,49.16-4.41,56.76s-.78,26.32-.78,26.32c0,0-5.62,10.07-35,8.9,0,0-31.02-4.21-29.55-17.85,4.48-41.59,1.45-71.71.71-72.08-.24-.12-1,2.33-1.86,5.79-1.73,6.96-3.85,17.96-2.99,20.11,1.3,3.21,8.99,36.83,8.99,36.83,0,0,1,.18-7.48,6.86,0,0-19.12-41.16-19.3-44.31-.07-1.21,1.29-10.58,3.4-21.85,3.37-18.05,8.66-40.94,13.02-42.88,6.9-3.08,36.67-11.85,36.67-11.85h16.8s28.41,9.09,32.65,17.78c2.34,4.81,4.31,19.11,5.36,33.18.77,10.23,1.4,20.04,1.01,26.27Z"/>
    <path class="cls-27" d="m670.3,216.18l-.34-.43c.06-.05,6.01-4.83,8.89-13.24l.52.18c-2.94,8.57-9.01,13.44-9.07,13.49Z"/>
    <path class="cls-27" d="m671.08,215.7l-.33-.44c.07-.05,7.09-5.39,9.62-10.64l.5.24c-2.59,5.37-9.49,10.62-9.78,10.84Z"/>
    <path class="cls-29" d="m680.26,1.05s15.69,2.47,13.3,27.03c-2.39,24.55-16.24,22.54-17.17,22.51-.93-.02-13.9.45-14.92-29.53,0,0-.44-22.17,18.78-20.01Z"/>
    <path class="cls-29" d="m687.59,43.36s-.68,10.03.3,12.21c.98,2.19-12.68,9.13-21.18,1.3,0,0,2.03-10.83,1.46-14.71-.57-3.89,19.42,1.2,19.42,1.2Z"/>
    <path class="cls-29" d="m693.81,21.14s1.72-1.83,2.35.02c.63,1.86-2.38,10.05-2.45,10.53,0,0-.31.72-.73.32-.41-.4.83-10.88.83-10.88Z"/>
    <path class="cls-29" d="m661.89,20.83s-1.68-1.87-2.35-.02c-.66,1.85,2.19,10.12,2.25,10.58,0,0,.3.73.72.34.42-.39-.62-10.89-.62-10.89Z"/>
    <path class="cls-33" d="m677.3,50.84c-1.25,0-2.36-.21-3.3-.5-3.17-.99-5.05-3.03-5.13-3.12l.27-.25s1.9,2.06,4.98,3.02c4.07,1.26,8.39.04,12.5-3.51l.24.28c-3.62,3.13-6.91,4.08-9.57,4.08Z"/>
    <path class="cls-10" d="m641.34,172.07l-.55-.06c.01-.13,1.31-13.01.85-16.97l.55-.06c.47,4.03-.79,16.56-.84,17.09Z"/>
    <path class="cls-27" d="m697.58,307.73c-5.29-4.67-8.07-19.65-8.19-20.28l.54-.1c.03.15,2.87,15.42,8.01,19.97l-.37.41Z"/>
    <path class="cls-27" d="m691.11,302.37c-1.4-5.74-1.3-12.84-1.3-12.91h.55c0,.08-.11,7.11,1.28,12.78l-.54.13Z"/>
    <path class="cls-10" d="m641.32,104.75l-.53-.17c.03-.1,3.05-9.76,2.42-16.58l.55-.05c.64,6.94-2.41,16.7-2.44,16.8Z"/>
    <path class="cls-30" d="m727.82,106.55l-17.87,1.48c-.17-1.9-.28-3.19-.28-3.19,0,0-4.41,49.16-4.41,56.76s-.36,26.21-.36,26.21c0,0-5.54,10.64-35.42,9,0,0-31.02-4.21-29.55-17.85,4.48-41.59,1.45-71.71.71-72.08-.24-.12-1,2.33-1.86,5.79l-19.5-2.31c3.38-18.05,10.78-40.99,15.14-42.93,4.55-2.03,19.02-6.53,28.37-9.36,4.84-1.47,8.31-2.49,8.31-2.49h16.8s1.1.35,2.9.98h0c7.34,2.58,26.35,9.82,29.75,16.8,2.34,4.81,6.24,19.13,7.29,33.2Z"/>
    <path class="cls-40" d="m690.78,56.56h0c-.04.27-3.44,23.13-12.9,25.64-9.52,2.51-15.1-24.13-15.1-24.13,4.84-1.47,8.31-2.49,8.31-2.49h16.8s1.1.35,2.9.98Z"/>
    <path class="cls-29" d="m666.71,56.88s4.82,20.71,10.72,20.83c5.9.12,10.45-22.14,10.45-22.14,0,0-10.21-6.25-21.18,1.3Z"/>
    <path class="cls-1" d="m640.8,65.04s64.87,101.52,74.26,121.03l-4.02,3.87s-55.02-95.04-75.48-122.99c0,0,2.37-2.11,5.24-1.9Z"/>
    <path class="cls-29" d="m676.41,109.07s-6.26-2-6.65-3.19c-.39-1.19-1.31-4.12-1.91-4.77-.6-.65-6.91-2.48-8.18-2.44-1.27.04-2.73,1.35-4.52,1.33-1.79-.01-5.83,3.35-5.36,5.86.47,2.51,3.96,7.11,5.69,7.65,1.73.54,9.9.79,10.7,1.15.8.35,6.84,2.85,6.84,2.85,0,0,3.52-5.21,3.38-8.43Z"/>
    <path class="cls-29" d="m676.06,108.95s32.53,8.12,34.83,10.06l-3.36,15.21s-11.79-4.67-34.5-16.73l3.03-8.55Z"/>
    <path class="cls-40" d="m709.18,102.88c0-.14-.21-14.03-1.99-17.95l.84-.38c1.86,4.09,2.06,17.74,2.07,18.32h-.92Z"/>
    <path class="cls-40" d="m709.18,101.38c-.01-.09-1.49-9.06-3.26-11.99l.79-.48c1.86,3.08,3.32,11.94,3.38,12.31l-.91.15Z"/>
    <path class="cls-24" d="m678.58,384.14l-.12-.54c.21-.04,5.1-1.07,7.43-.66l-.1.54c-2.22-.4-7.16.64-7.21.65Z"/>
    <path class="cls-24" d="m679.64,385.86l-.12-.54c.21-.04,5.1-1.07,7.42-.66l-.1.54c-2.22-.4-7.16.64-7.21.66Z"/>
    <path class="cls-24" d="m680.93,387.57l-.11-.54c.21-.04,5.1-1.08,7.42-.66l-.1.54c-2.22-.4-7.16.64-7.21.65Z"/>
    <path class="cls-24" d="m686.72,401.1c-2.03,0-4.41-.17-7.19-.61l.09-.54c12.24,1.92,16.69-1.44,16.74-1.48l.34.44c-.14.11-2.9,2.2-9.98,2.2Z"/>
    <path class="cls-33" d="m719.69,124.08c-1.59-3-8.07-5.37-8.13-5.39l.19-.52c.27.1,6.75,2.47,8.43,5.65l-.49.26Z"/>
    <path class="cls-17" d="m693.39,24.96s-2.13-4.07-3.24-6.03c0,0-7.79,6.14-18.41,4.48,0,0-9.28,4.14-9.61,2.83-.32-1.31-.65-5.17-.65-5.17,0,0-.17-15.33,9.03-16.8,9.2-1.47,19.75,1.82,21.95,9.83,2.21,8.01.92,10.86.92,10.86Z"/>
    <path class="cls-16" d="m694.3,20.71s-1.21-21.6-15.94-20.69c-14.73.92-17.35,12.01-17.82,20.02l.93,1.01s2.15-15.89,16.17-15.88c13.67.02,16.12,16.18,16.12,16.18l.54-.65Z"/>
    <path class="cls-16" d="m667.85,115.35s3.78-6.94,3.8-8.12c0,0,3.14.59,3.66,1.47,0,0-2.35,6.92-3.94,8.12,0,0-2.69-.49-3.52-1.46Z"/>
    <path class="cls-1" d="m674.01,110.97c0,.83-.67,1.5-1.5,1.5s-1.5-.67-1.5-1.5.67-1.5,1.5-1.5,1.5.67,1.5,1.5Z"/>
    <rect class="cls-1" x="705.48" y="187.79" width="14.17" height=".85" transform="translate(61 532.65) rotate(-42.66)"/>
  </g>
  <g>
    <path class="cls-29" d="m405.98,196.54s-.91,4.13-2.51,8.35c-.78,2.06-1.17,15.54-1.09,17.29.07,1.46,1.04.6,1.53-.37.28-.55,1.17-5.22,2.03-7.69.72-2.08,1.35-2.86,1.72-2.19.37.67,1.03,9.34.24,13.04-.79,3.7.03,12.24,1.98,11,1.95-1.23,6.51-16.67,6.13-22.48-.38-5.81-2.46-13.1-2.46-13.1l-7.56-3.86Z"/>
    <path class="cls-36" d="m415.43,202.01l-12.2-1.07s-1.46-13.91-3.02-27.27c-.5-4.32-1.02-8.59-1.5-12.31,0-.05-.01-.1-.02-.15,0-.05-.01-.09-.02-.15-.6-4.65-1.15-8.4-1.54-10.28-.76-3.64-2.87-12.7-4.2-20.14-.44-2.45-.81-4.97-1.12-7.44,0,0,0,0,0,0-1.25-9.87-1.57-18.86-1.57-18.86,0,0-10.86-27.12,5.09-28.67,0,0,3.22,1.06,4.52,2.26,3.67,3.38,8.51,24.03,8.6,27.49.07,2.81,4.2,31.17,4.26,32.17.12,1.95,1.07,15.08,1.46,20.85.91,13.47,1.25,43.58,1.25,43.58Z"/>
    <path class="cls-9" d="m411.81,379.9s6.39,6.71,12.88,8.12,11.03,3.2,11.08,7.05c.05,3.85-18.68,6.39-26.1,2.51-11.08-5.8-12.21-4.05-13.44-6.95-1.23-2.9,1.48-10.64,1.4-11.57-.1-1.14,14.19.83,14.19.83Z"/>
    <path class="cls-42" d="m411.1,376.69s.84,3.14.72,3.21-14.63,1.69-14.19-.83c.36-2.05.86-4.27.86-4.27l12.6,1.89Z"/>
    <path class="cls-9" d="m339.6,381.65s4.7,6.54,10.99,8.05c6.2,1.49,10.22,4.32,10.53,8.06.3,3.74-14.62,8.65-25.11,2.07-6.89-4.32-9.46-4.08-10.85-6.82s.73-10.44.59-11.33c-.17-1.1,13.85-.03,13.85-.03Z"/>
    <path class="cls-42" d="m339.4,378.42s.31,3.16.19,3.23-13.94,2.52-13.85.03c.07-1.98.88-4.44.88-4.44l12.79,1.18Z"/>
    <path class="cls-18" d="m396.47,187.81s6.71,48.78,9.46,65.26c3.21,19.28,4.29,35.21,5.19,45.19,1.12,12.55.5,76.78,1.29,80.45.79,3.67-15.88,1.76-15.88,1.76,0,0-12.22-83.73-15.57-97.1-3.12-12.45-11.7-63.76-14.55-60.36-2.85,3.4-12.06,61.85-14.17,71.66-2.11,9.82-10.62,87.09-10.62,87.09,0,0-14.17,3.08-18.03,0,0,0,.86-68.9,2.21-87.31.51-7.01-4.44-83.96,7.42-114.99,6.27-16.4,63.25,8.34,63.25,8.34Z"/>
    <path class="cls-43" d="m397.05,190.14l.76,7.32s-20.46,8.29-70.26,8.29v-8.38l69.5-7.24Z"/>
    <path class="cls-36" d="m397.55,189.99s-36.62,11.75-71.8,7.17c0,0,7.55-33.88,6.14-45.43-.59-4.87-1.46-11.84-2.36-18.99-.42-3.38-.86-6.8-1.27-10.05-1.36-10.81-2.51-19.86-2.51-19.86,0,0,6.15-23.93,9.28-26.58,3.13-2.65,23.45-5.99,23.45-5.99l18.28.59s17.77,3.68,19.88,5.54c2.29,1.99,5.91,21.48,6.57,26.87.97,8.05-2.14,28.07-4.43,36.5-2.29,8.43,3.02,44.33-1.23,50.25Z"/>
    <path class="cls-36" d="m384.81,72.64s1.07-4.86-14.15-5.99c-15.22-1.13-25.51,2.29-25.8,6.66s38.55,15.26,38.55,15.26l1.4-15.93Z"/>
    <path class="cls-29" d="m380.29,75.33s-5.12,2.26-21.8-5.09c0,0,.47-11.43-2.8-22.11-3.27-10.68,22.38,14.24,22.38,14.24-.24.17-.31,1.07-.21,2.35.01.13.02.26.04.39.13,1.26.41,2.83.82,4.41.94,3.57.72,2.94,1.56,5.8Z"/>
    <g>
      <path class="cls-2" d="m348.5,214.31c-7.82,0-14.19-7.06-14.19-15.73s6.36-15.73,14.19-15.73,14.19,7.06,14.19,15.73-6.36,15.73-14.19,15.73Zm0-28c-6.01,0-10.9,5.5-10.9,12.26s4.89,12.26,10.9,12.26,10.9-5.5,10.9-12.26c0-6.76-4.89-12.26-10.9-12.26Z"/>
      <rect class="cls-14" x="313.07" y="247.26" width="70.86" height="35.36"/>
      <path class="cls-2" d="m316.34,289.23s-.3-7.93,0-50.56c.31-44.28,32.55-43.62,32.55-43.62,0,0,32.23-.66,32.55,43.62.3,42.63,0,50.56,0,50.56h-65.09Z"/>
      <rect class="cls-14" x="323.69" y="247.26" width="50.38" height="35.36"/>
      <rect class="cls-34" x="323.69" y="247.26" width="50.38" height="9.83"/>
    </g>
    <path class="cls-25" d="m343.02,103.46c-1.85,7.28-13.49,29.27-13.49,29.27-.42-3.38-.86-6.8-1.27-10.05,6.15-8.55,14.75-19.22,14.75-19.22Z"/>
    <path class="cls-25" d="m400.21,173.67c-.5-4.32-1.02-8.59-1.5-12.31,0-.05-.01-.1-.02-.15,0-.05-.01-.09-.02-.15-.39-3.51-.34-18.32.5-22.86.85-4.6,3.71-22.48,3.71-22.48.66,18.79-2.67,57.94-2.67,57.94Z"/>
    <path class="cls-29" d="m380.25,15.1s13.78,3.94,10.43,29.56c-3.69,28.26-23.87,20.71-28.99,15.47-5.12-5.24-9.14-16.57-9.38-25.09-.24-8.53,1.38-31.51,27.93-19.94Z"/>
    <path class="cls-37" d="m391.6,33.63s-.47-9.44-12.17-7.49-22.96,11.09-23.05,25.64c0,0-16.17-26.45-3.34-37.42,12.83-10.96,38.56-6.37,38.56,19.27Z"/>
    <path class="cls-4" d="m376.46,26.8s12.58,12.07,16.11,12.38c0,0,1.94-17.51-16.11-12.38Z"/>
    <path class="cls-29" d="m359.76,39.18c-.8-2.56-3.76-6.01-5.14-2.19-1.37,3.82,2.42,12.52,4.03,11.29,1.61-1.22,2.58-4.39,1.1-9.1Z"/>
    <path class="cls-20" d="m378.72,69.53c-13.78.74-18.68-11.35-18.68-11.35,7.66,9.04,17.62,6.59,17.82,6.54.01.13.02.26.04.39.13,1.26.41,2.83.82,4.41Z"/>
    <path class="cls-21" d="m349.78,187.36s31.99-2.08,42.29-6.72c0,0,1-23.09,1.14-26.38l-6.59-8.44-27.88,2.29-10.24,9.44,1.28,29.81Z"/>
    <path class="cls-29" d="m341.72,192.98s-.92-1.37-1.03-2.16c0,0-.09-1.46-.22-2.49-.04-.33-.08-.61-.13-.79-.2-.76-.86-2.36-.82-4.31.04-1.95,2.36-10.31,2.36-10.31l4.88-.03,4.56-.68s5.96,10.34,6.14,12.16c.02.18.03.35.02.52,0,1.55-.65,2.71-.75,3.53-.04.3-.59,3.25-1.38,3.69-1.09.6-2.09.58-2.85.18,0,0-2.19,1.09-3.79.72,0,0-1.99,1.07-3.85.04,0,0-2.14.86-3.14-.06Z"/>
    <path class="cls-36" d="m347.64,76.93c2.11,1.34,3.43,7.35-.53,17.84-4.25,11.25-9.08,15.45-11.17,17.86-2.09,2.41-13.92,17.48-12.83,19.99,1.09,2.51,12.67,19.6,13.27,20.93.6,1.32,15.7,18.81,15.7,18.81l-13.95,8.29s-27.78-32.25-29.95-35.5c-2.17-3.25-9.14-10.56-4.26-19.43,4.96-9.02,14.93-30.45,16.25-32.02,1.32-1.57,12.53-26.26,27.46-16.76Z"/>
  </g>
</svg>