<svg width="394" height="338" viewBox="0 0 394 338" fill="none" xmlns="http://www.w3.org/2000/svg">
<path fill-rule="evenodd" clip-rule="evenodd" d="M-139.399 294.995L-135.07 298.156L-130.774 301.251L-126.516 304.272L-122.301 307.21L-118.133 310.057L-114.015 312.805L-109.953 315.446L-105.95 317.972L-102.009 320.375L-98.1353 322.649L-94.3316 324.786L-90.6014 326.78L-86.9482 328.625L-83.3749 330.313L-79.8846 331.84L-76.4801 333.201L-73.1639 334.389L-69.9385 335.4L-66.8061 336.23L-63.7688 336.876L-60.8285 337.332L-57.9867 337.597L-55.245 337.667L-52.6045 337.539L-50.0663 337.213L-47.6313 336.686L-45.3 335.957L-43.0728 335.025L-40.9499 333.89L-38.9313 332.552L-37.0167 331.012L-35.2056 329.27L-33.4974 327.328L-31.8912 325.188L-30.3858 322.851L-28.98 320.32L-27.6722 317.599L-26.4607 314.689L-25.3437 311.597L-24.3189 308.324L-23.3841 304.877L-22.5367 301.259L-21.7742 297.476L-21.0936 293.533L-20.492 289.437L-19.9662 285.193L-19.5127 280.809L-19.1282 276.29L-18.8091 271.644L-18.5515 266.878L-18.3515 262L-18.2052 257.017L-18.1084 251.938L-18.057 246.771L-18.0465 241.524L-18.0726 236.206L-18.1309 230.825L-18.2167 225.39L-18.3254 219.911L-18.4525 214.396L-18.5933 208.855L-18.743 203.296L-18.8968 197.729L-19.0502 192.164L-19.1982 186.608L-19.3362 181.072L-19.4595 175.564L-19.5634 170.095L-19.6433 164.672L-19.6945 159.305L-19.7126 154.002L-19.6931 148.773L-19.6316 143.625L-19.5238 138.568L-19.3655 133.608L-19.1527 128.755L-18.8812 124.016L-18.5474 119.399L-18.1473 114.91L-17.6775 110.557L-17.1345 106.347L-16.515 102.286L-15.8159 98.3793L-15.0341 94.6338L-14.1668 91.0547L-13.2115 87.647L-12.1657 84.4155L-11.0271 81.3646L-9.79364 78.4983L-8.46345 75.8204L-7.03486 73.334L-5.5064 71.0421L-3.8768 68.947L-2.145 67.0508L-0.310163 65.3553L1.62835 63.8615L3.67094 62.5704L5.81783 61.4823L8.06901 60.5973L10.4242 59.9147L12.8831 59.4339L15.4449 59.1535L18.1087 59.0718L20.8736 59.1867L23.7382 59.4957L26.701 59.996L29.7603 60.6841L32.9143 61.5565L36.1608 62.6089L39.4975 63.8371L42.922 65.2361L46.4316 66.8009L50.0236 68.5258L53.6948 70.4051L57.4422 72.4326L61.2624 74.6019L65.1519 76.9062L69.1072 79.3385L73.1245 81.8915L77.1999 84.5575L81.3294 87.329L85.5089 90.1978L89.7343 93.1557L94.0011 96.1944L98.305 99.3054L102.642 102.48L107.006 105.709L111.394 108.984L115.801 112.296L120.223 115.635L124.653 118.993L129.089 122.359L133.524 125.726L137.955 129.084L142.376 132.423L146.783 135.735L151.171 139.01L155.536 142.239L159.872 145.413L164.176 148.524L168.443 151.563L172.668 154.521L176.848 157.39L180.977 160.161L185.053 162.827L189.07 165.38L193.025 167.813L196.915 170.117L200.735 172.286L204.482 174.314L208.154 176.193L211.746 177.918L215.255 179.483L218.68 180.882L222.016 182.11L225.263 183.162L228.417 184.035L231.476 184.723L234.439 185.223L237.304 185.532L240.069 185.647L242.732 185.565L245.294 185.285L247.753 184.804L250.108 184.122L252.359 183.236L254.506 182.148L256.549 180.857L258.487 179.364L260.322 177.668L262.054 175.772L263.684 173.677L265.212 171.385L266.641 168.898L267.971 166.22L269.204 163.354L270.343 160.303L271.389 157.072L272.344 153.664L273.211 150.085L273.993 146.339L274.692 142.433L275.312 138.372L275.855 134.161L276.325 129.809L276.725 125.32L277.058 120.702L277.33 115.963L277.543 111.11L277.701 106.151L277.809 101.094L277.87 95.946L277.89 90.7166L277.872 85.414L277.821 80.0469L277.741 74.624L277.637 69.1544L277.513 63.6469L277.375 58.1109L277.227 52.5553L277.074 46.9895L276.92 41.4225L276.771 35.8638L276.63 30.3224L276.503 24.8076L276.394 19.3285L276.308 13.894L276.25 8.51328L276.224 3.19505L276.234 -2.05194L276.286 -7.21915L276.382 -12.2981L276.529 -17.2807L276.729 -22.1589L276.986 -26.9248L277.306 -31.5708L277.69 -36.0897L278.143 -40.4744L278.669 -44.7182L279.271 -48.8144L279.951 -52.7569L280.714 -56.5399L281.561 -60.1578L282.496 -63.6054L283.521 -66.8778L284.638 -69.9707L285.849 -72.8797L287.157 -75.6013L288.563 -78.132L290.068 -80.4689L291.675 -82.6095L293.383 -84.5516L295.194 -86.2934L297.109 -87.8337L299.127 -89.1715L301.25 -90.3063L303.477 -91.238L305.809 -91.9671L308.244 -92.4943L310.782 -92.8206L313.422 -92.9479L316.164 -92.878L319.006 -92.6134L321.946 -92.1568L324.983 -91.5116L328.116 -90.6813L331.341 -89.6699L334.657 -88.4818L338.062 -87.1216L341.552 -85.5945L345.125 -83.9059L348.779 -82.0616L352.509 -80.0676L356.313 -77.9304L360.186 -75.6565L364.127 -73.253L368.13 -70.7272L372.193 -68.0864L376.31 -65.3385L380.478 -62.4914L384.694 -59.5533L388.951 -56.5324L393.247 -53.4373" fill="url(#paint0_linear_1_48)"/>
<defs>
<linearGradient id="paint0_linear_1_48" x1="-233.158" y1="323.232" x2="275.353" y2="419.516" gradientUnits="userSpaceOnUse">
<stop stop-color="#84489F"/>
<stop offset="1" stop-color="#A82B5C"/>
</linearGradient>
</defs>
</svg>
