<svg width="209" height="243" viewBox="0 0 209 243" fill="none" xmlns="http://www.w3.org/2000/svg">
<path fill-rule="evenodd" clip-rule="evenodd" d="M296.032 54.6104L296.135 55.7714L296.444 56.9389L296.958 58.1192L297.676 59.3186L298.598 60.5436L299.722 61.8004L301.046 63.0952L302.565 64.434L304.278 65.8228L306.178 67.2672L308.259 68.7725L310.513 70.3436L312.929 71.985L315.496 73.7002L318.199 75.4923L321.021 77.3631L323.942 79.3134L326.938 81.3427L329.982 83.4488L333.046 85.6279L336.097 87.8744L339.098 90.1806L342.012 92.5369L344.798 94.9314L347.414 97.3501L349.818 99.7772L351.968 102.195L353.822 104.584L355.343 106.925L356.495 109.197L357.249 111.378L357.581 113.448L357.475 115.389L356.919 117.182L355.914 118.812L354.466 120.268L352.59 121.539L350.309 122.621L347.652 123.511L344.655 124.212L341.359 124.728L337.807 125.068L334.048 125.245L330.128 125.272L326.096 125.167L321.998 124.947L317.88 124.633L313.784 124.243L309.749 123.8L305.81 123.323L301.999 122.834L298.345 122.352L294.871 121.897L291.6 121.488L288.55 121.143L285.737 120.882L283.175 120.721L280.876 120.68L278.854 120.777L277.119 121.031L275.684 121.463L274.562 122.096L273.768 122.955L273.307 124.057L273.151 125.4L273.274 126.976L273.652 128.781L274.26 130.809L275.077 133.054L276.082 135.512L277.254 138.175L278.57 141.035L280.008 144.081L281.545 147.301L283.154 150.679L284.81 154.196L286.483 157.832L288.144 161.561L289.762 165.355L291.305 169.181L292.74 173.005L294.036 176.79L295.16 180.495L296.083 184.081L296.777 187.505L297.217 190.727L297.382 193.709L297.258 196.414L296.831 198.811L296.098 200.872L295.059 202.577L293.719 203.911L292.089 204.865L290.187 205.438L288.033 205.637L285.652 205.474L283.072 204.967L280.323 204.139L277.434 203.019L274.437 201.638L271.363 200.029L268.242 198.227L265.1 196.269L261.963 194.188L258.854 192.021L255.793 189.799L252.797 187.554L249.882 185.314L247.058 183.105L244.336 180.951L241.721 178.873L239.22 176.89L236.835 175.017L234.566 173.27L232.415 171.659L230.379 170.196L228.455 168.889L226.642 167.745L224.934 166.771L223.327 165.972L221.816 165.352L220.396 164.916L219.061 164.666L217.806 164.606L216.625 164.738L215.511 165.065L214.458 165.588L213.461 166.309L212.513 167.23L211.608 168.351L210.74 169.675L209.901 171.2L209.086 172.926L208.287 174.852L207.498 176.976L206.711 179.294L205.92 181.801L205.118 184.491L204.296 187.353L203.449 190.378L202.568 193.551L201.646 196.855L200.677 200.27L199.654 203.773L198.571 207.336L197.423 210.93L196.205 214.521L194.914 218.069L193.549 221.537L192.107 224.88L190.59 228.053L189 231.012L187.343 233.711L185.623 236.106L183.85 238.155L182.032 239.819L180.181 241.067L178.309 241.871L176.429 242.212L174.556 242.077L172.703 241.465L170.884 240.38L169.112 238.837L167.4 236.858L165.756 234.473L164.191 231.72L162.711 228.639L161.32 225.277L160.021 221.684L158.815 217.909L157.7 214.003L156.671 210.017L155.725 205.997L154.854 201.991L154.05 198.039L153.305 194.181L152.608 190.453L151.949 186.886L151.316 183.509L150.697 180.346L150.082 177.421L149.456 174.753L148.808 172.362L148.123 170.264L147.387 168.477L146.586 167.018L145.702 165.905L144.717 165.159L143.613 164.803L142.377 164.831L141.007 165.214L139.499 165.926L137.852 166.942L136.064 168.239L134.132 169.795L132.057 171.587L129.838 173.594L127.478 175.791L124.98 178.152L122.348 180.652L119.592 183.259L116.72 185.942L113.747 188.667L110.686 191.397L107.558 194.092L104.382 196.712L101.184 199.214L97.9894 201.558L94.8269 203.699L91.7266 205.599L88.7192 207.219L85.8357 208.523L83.1061 209.484L80.5591 210.074L78.2206 210.278L76.1136 210.083L74.2569 209.486L72.6648 208.49L71.3468 207.107L70.3074 205.353L69.5456 203.252L69.0557 200.834L68.8273 198.132L68.8458 195.182L69.0932 192.022L69.5484 188.693L70.1882 185.233L70.9879 181.68L71.9219 178.072L72.9645 174.442L74.0902 170.822L75.2743 167.24L76.4931 163.721L77.7245 160.286L78.9477 156.955L80.1437 153.741L81.2953 150.658L82.3868 147.714L83.4041 144.917L84.3347 142.271L85.1676 139.779L85.8929 137.442L86.5019 135.262L86.9868 133.235L87.3406 131.36L87.5573 129.635L87.6311 128.055L87.5569 126.617L87.33 125.316L86.9459 124.148L86.4004 123.107L85.6896 122.189L84.8098 121.389L83.7574 120.701L82.5293 120.119L81.1224 119.638L79.5343 119.252L77.7629 118.955L75.8069 118.74L73.6657 118.6L71.3398 118.528L68.8309 118.515L66.142 118.554L63.2782 118.635L60.2462 118.748L57.0555 118.882L53.718 119.027L50.2484 119.169L46.6648 119.296L42.9887 119.395L39.245 119.45L35.4625 119.448L31.6734 119.373L27.9132 119.211L24.2208 118.948L20.6374 118.569L17.2064 118.063L13.9722 117.418L10.9791 116.625L8.27069 115.677L5.88825 114.569L3.86955 113.3L2.24766 111.872L1.04982 110.289L0.29637 108.558L0 106.69L0.165192 104.699L0.787978 102.599L1.856 100.409L3.34891 98.1461L5.23897 95.8308L7.49201 93.4823L10.0685 91.1199L12.9247 88.7619L16.0139 86.4253L19.288 84.1255L22.6981 81.8758L26.1961 79.6878L29.7351 77.5704L33.2706 75.5307L36.7608 73.5734L40.1669 71.7013L43.4531 69.9152L46.5871 68.2142L49.5394 66.5961L52.2832 65.0569L54.7941 63.5918L57.0496 62.1948L59.0282 60.8588L60.7095 59.5762L62.0724 58.3383L63.0956 57.1357L63.7557 55.9584L64.0267 54.7951L63.8856 53.6339L63.3464 52.4622L62.4363 51.2689L61.1791 50.0433L59.597 48.7759L57.7109 47.4578L55.5413 46.081L53.1094 44.6383L50.4372 43.1233L47.5485 41.5308L44.4694 39.8565L41.2283 38.0977L37.8567 36.253L34.3892 34.3226L30.8637 32.3087L27.3211 30.2154L23.8051 28.049L20.3618 25.8179L17.0391 23.5327L13.8857 21.2062L10.9501 18.8533L8.27961 16.4903L5.91903 14.1353L3.90936 11.8074L2.28661 9.52592L1.08067 7.31049L0.314327 5.18004L0.00254246 3.15239L0.151976 1.2437L0.760826 -0.532043L1.81897 -2.16339L3.30843 -3.64177L5.20407 -4.96162L7.47455 -6.12055L10.0835 -7.11916L12.9905 -7.96101L16.1527 -8.6523L19.5259 -9.2016L23.0655 -9.61946L26.7278 -9.91803L30.4707 -10.1107L34.2547 -10.2115L38.043 -10.2353L41.8023 -10.1968L45.5028 -10.1106L49.1183 -9.99122L52.6263 -9.85234L56.0077 -9.7072L59.2466 -9.56827L62.3302 -9.44724L65.2485 -9.35503L67.9937 -9.30179L70.5604 -9.29695L72.9449 -9.34925L75.145 -9.46683L77.16 -9.65725L78.99 -9.9276L80.6363 -10.2846L82.1007 -10.7345L83.3854 -11.2834L84.4935 -11.9371L85.4279 -12.7012L86.1921 -13.5811L86.7899 -14.582L87.2249 -15.7091L87.5015 -16.9673L87.6238 -18.3612L87.5966 -19.8955L87.4248 -21.5741L87.114 -23.4008L86.6701 -25.3787L86.0999 -27.5102L85.4108 -29.7969L84.6111 -32.2392L83.7105 -34.8364L82.7195 -37.586L81.6502 -40.4839L80.5162 -43.5238L79.3325 -46.6971L78.1159 -49.9926L76.885 -53.396L75.6598 -56.8902L74.4622 -60.4547L73.3153 -64.0655L72.2435 -67.6955L71.2721 -71.3143L70.4268 -74.8885L69.7333 -78.3822L69.2167 -81.7576L68.9007 -84.9756L68.8072 -87.9966L68.9552 -90.7819L69.3604 -93.2942L70.0348 -95.4992L70.9855 -97.3664L72.2149 -98.8702L73.7205 -99.991L75.4942 -100.716L77.5234 -101.039L79.7904 -100.961L82.2737 -100.492L84.9481 -99.6473L87.7858 -98.4493L90.7571 -96.9265L93.8311 -95.112L96.9771 -93.043L100.165 -90.7594L103.365 -88.3028L106.55 -85.7156L109.696 -83.0399L112.781 -80.317L115.784 -77.5866L118.689 -74.8862L121.483 -72.2512L124.156 -69.7142L126.697 -67.3056L129.102 -65.0535L131.366 -62.9837L133.487 -61.1205L135.464 -59.4868L137.298 -58.105L138.99 -56.997L140.541 -56.1856L141.955 -55.6947L143.234 -55.5504L144.379 -55.7819L145.4 -56.406L146.314 -57.4041L147.14 -58.7549L147.895 -60.4394L148.594 -62.4402L149.253 -64.74L149.884 -67.3216L150.502 -70.1669L151.118 -73.2562L151.745 -76.5678L152.394 -80.0773L153.078 -83.7574L153.807 -87.5775L154.591 -91.5032L155.44 -95.4969L156.361 -99.5171L157.363 -103.519L158.45 -107.456L159.627 -111.278L160.896 -114.935L162.258 -118.376L163.71 -121.551L165.249 -124.413L166.868 -126.92L168.56 -129.031L170.314 -130.716L172.119 -131.949L173.963 -132.713L175.831 -133L177.71 -132.81L179.586 -132.152L181.445 -131.043L183.275 -129.508L185.064 -127.577L186.801 -125.289L188.48 -122.682L190.091 -119.801L191.632 -116.69L193.097 -113.396L194.488 -109.964L195.802 -106.437L197.043 -102.855L198.213 -99.2587L199.316 -95.6819L200.357 -92.1565L201.343 -88.7107L202.279 -85.369L203.172 -82.1525L204.03 -79.0791L204.859 -76.1636L205.666 -73.418L206.46 -70.852L207.247 -68.473L208.035 -66.2868L208.83 -64.2972L209.639 -62.507L210.47 -60.9177L211.328 -59.5302L212.221 -58.3443L213.154 -57.3596L214.135 -56.5749L215.169 -55.989L216.263 -55.6001L217.422 -55.4063L218.653 -55.4055L219.962 -55.595L221.354 -55.9722L222.836 -56.5338L224.411 -57.2763L226.087 -58.1952L227.866 -59.2856L229.754 -60.5415L231.754 -61.956L233.868 -63.5207L236.099 -65.2259L238.448 -67.0601L240.912 -69.0097L243.491 -71.0594L246.179 -73.1912L248.972 -75.385L251.859 -77.6179L254.831 -79.8645L257.872 -82.097L260.968 -84.2852L264.099 -86.3968L267.242 -88.3979L270.373 -90.2533L273.465 -91.9276L276.49 -93.3852L279.416 -94.5921L282.213 -95.5161L284.851 -96.1281L287.298 -96.4032L289.527 -96.3213L291.512 -95.868L293.23 -95.0354L294.664 -93.8222L295.8 -92.2343L296.631 -90.2843L297.155 -87.9915L297.375 -85.3812L297.3 -82.4837L296.945 -79.334L296.33 -75.9699L295.477 -72.4315L294.414 -68.76L293.17 -64.9963L291.775 -61.1806L290.263 -57.351L288.665 -53.5433L287.015 -49.7905L285.342 -46.122L283.678 -42.5641L282.051 -39.1395L280.488 -35.8676L279.016 -32.7648L277.658 -29.8445L276.438 -27.1179L275.378 -24.5939L274.498 -22.2799L273.821 -20.1821L273.368 -18.3058L273.161 -16.6562L273.225 -15.2385L273.586 -14.0588L274.273 -13.1231L275.292 -12.4212L276.629 -11.9277L278.269 -11.6192L280.202 -11.4745L282.413 -11.4738L284.893 -11.5982L287.628 -11.8294L290.604 -12.1494L293.807 -12.5398L297.218 -12.9823L300.817 -13.4578L304.581 -13.947L308.482 -14.4299L312.491 -14.8861L316.571 -15.2949L320.687 -15.6357L324.795 -15.8879L328.853 -16.0318L332.814 -16.0486L336.63 -15.9211L340.253 -15.6342L343.636 -15.1752L346.733 -14.5342L349.502 -13.7048L351.907 -12.684L353.914 -11.4725L355.501 -10.0748L356.648 -8.49885L357.347 -6.75602L357.596 -4.86066L357.402 -2.82959L356.78 -0.681549L355.751 1.56339L354.344 3.88438L352.592 6.26059L350.533 8.67151L348.205 11.0976L345.652 13.5208L342.915 15.9246L340.038 18.2945L337.06 20.6178L334.021 22.8843L330.958 25.0856L327.903 27.2154L324.889 29.2694L321.942 31.245L319.086 33.1411L316.343 34.9581L313.731 36.6976L311.265 38.3621L308.958 39.9552L306.822 41.4809L304.863 42.9442L303.09 44.3501L301.509 45.7042L300.122 47.0123L298.934 48.2805L297.948 49.515L297.164 50.7219L296.585 51.9076L296.211 53.0784L296.043 54.2408L296.032 54.6104Z" fill="url(#paint0_linear_1_51)"/>
<defs>
<linearGradient id="paint0_linear_1_51" x1="-148.698" y1="161.825" x2="173.839" y2="324.499" gradientUnits="userSpaceOnUse">
<stop stop-color="#4A0391"/>
<stop offset="1" stop-color="#84489F"/>
</linearGradient>
</defs>
</svg>
