<svg width="198" height="196" viewBox="0 0 198 196" fill="none" xmlns="http://www.w3.org/2000/svg">
<path fill-rule="evenodd" clip-rule="evenodd" d="M193.941 84.1064V84.1064L194.441 85.2399L194.91 86.3855L195.347 87.5422L195.752 88.7094L196.124 89.8861L196.464 91.0714L196.77 92.2645L197.042 93.4645L197.281 94.6705L197.486 95.8815L197.656 97.0968L197.793 98.3154L197.895 99.5364L197.964 100.759L197.999 101.982L198 103.205L197.968 104.428L197.903 105.648L197.806 106.866L197.677 108.081L197.516 109.292L197.324 110.498L197.102 111.699L196.85 112.894L196.57 114.083L196.261 115.265L195.925 116.439L195.562 117.606L195.173 118.764L194.759 119.914L194.321 121.055L193.86 122.187L193.377 123.31L192.872 124.423L192.346 125.526L191.8 126.619L191.236 127.703L190.654 128.776L190.054 129.84L189.438 130.894L188.806 131.938L188.16 132.972L187.499 133.997L186.824 135.012L186.137 136.017L185.437 137.013L184.725 138L184.002 138.977L183.268 139.946L182.524 140.905L181.77 141.857L181.007 142.8L180.235 143.735L179.455 144.662L178.667 145.582L177.871 146.494L177.069 147.399L176.259 148.298L175.443 149.191L174.62 150.077L173.792 150.958L172.958 151.834L172.118 152.704L171.273 153.57L170.423 154.431L169.567 155.288L168.706 156.141L167.841 156.991L166.97 157.837L166.094 158.679L165.213 159.519L164.327 160.356L163.435 161.191L162.539 162.022L161.636 162.852L160.728 163.679L159.814 164.504L158.894 165.326L157.968 166.147L157.035 166.965L156.095 167.78L155.148 168.593L154.194 169.404L153.232 170.212L152.262 171.017L151.284 171.818L150.297 172.616L149.302 173.411L148.298 174.201L147.284 174.986L146.26 175.766L145.226 176.541L144.183 177.311L143.128 178.073L142.063 178.829L140.987 179.577L139.9 180.316L138.801 181.047L137.691 181.769L136.569 182.48L135.436 183.18L134.29 183.869L133.133 184.546L131.963 185.21L130.782 185.86L129.588 186.496L128.383 187.116L127.166 187.721L125.937 188.309L124.697 188.88L123.445 189.433L122.183 189.968L120.909 190.483L119.625 190.978L118.33 191.453L117.025 191.906L115.711 192.338L114.387 192.748L113.054 193.135L111.713 193.499L110.364 193.839L109.008 194.155L107.644 194.447L106.274 194.715L104.897 194.957L103.515 195.175L102.128 195.367L100.736 195.534L99.34 195.675L97.9406 195.791L96.5381 195.881L95.1331 195.946L93.726 195.986L92.3175 196L90.9078 195.989L89.4976 195.954L88.0873 195.893L86.6773 195.808L85.2681 195.699L83.86 195.566L82.4536 195.41L81.049 195.23L79.6468 195.028L78.2473 194.803L76.8507 194.556L75.4574 194.287L74.0676 193.997L72.6817 193.686L71.2998 193.355L69.9222 193.003L68.5491 192.632L67.1807 192.241L65.8172 191.832L64.4587 191.404L63.1054 190.958L61.7574 190.495L60.4149 190.014L59.0779 189.515L57.7467 189L56.4212 188.469L55.1017 187.921L53.7882 187.357L52.4809 186.777L51.1798 186.182L49.8852 185.571L48.597 184.945L47.3156 184.303L46.0409 183.647L44.7733 182.975L43.5129 182.288L42.26 181.586L41.0148 180.868L39.7777 180.135L38.5488 179.387L37.3287 178.623L36.1176 177.843L34.916 177.047L33.7244 176.236L32.5432 175.407L31.373 174.563L30.2143 173.701L29.0677 172.822L27.9338 171.927L26.8132 171.013L25.7066 170.083L24.6147 169.134L23.5381 168.168L22.4777 167.183L21.4342 166.181L20.4082 165.16L19.4006 164.121L18.4122 163.064L17.4436 161.989L16.4958 160.895L15.5693 159.784L14.6651 158.655L13.7838 157.508L12.926 156.343L12.0927 155.161L11.2843 153.963L10.5015 152.748L9.74501 151.517L9.01528 150.271L8.31285 149.009L7.63821 147.733L6.99177 146.443L6.3739 145.139L5.78492 143.823L5.22507 142.495L4.69455 141.156L4.19349 139.806L3.72194 138.447L3.2799 137.078L2.8673 135.701L2.48401 134.318L2.12985 132.927L1.80458 131.531L1.50791 130.13L1.23949 128.725L0.998939 127.317L0.785805 125.907L0.599598 124.495L0.439782 123.082L0.305776 121.669L0.196962 120.256L0.112682 118.845L0.052248 117.436L0.0149368 116.029L0 114.626L0.00666529 113.227L0.0341401 111.832L0.0816158 110.442L0.148271 109.057L0.233278 107.678L0.335801 106.305L0.455007 104.939L0.590067 103.579L0.740158 102.227L0.904471 100.882L1.08221 99.5444L1.2726 98.2147L1.47489 96.8927L1.68835 95.5786L1.9123 94.2725L2.14606 92.9743L2.38902 91.6841L2.64059 90.4019L2.90023 89.1275L3.16743 87.8608L3.44175 86.6019L3.72278 85.3504L4.01013 84.1064L4.30342 82.8696L4.6023 81.6399L4.90641 80.417L5.21543 79.2008L5.52907 77.9912L5.84704 76.7878L6.1691 75.5904L6.49505 74.3988L6.82469 73.2129L7.15789 72.0322L7.49454 70.8567L7.83458 69.686L8.17798 68.52L8.52475 67.3583L8.87494 66.2009L9.22865 65.0475L9.58602 63.8978L9.94722 62.7518L10.3125 61.6093L10.682 60.47L11.0561 59.334L11.4351 58.2011L11.8193 57.0713L12.2092 55.9445L12.6051 54.8206L13.0074 53.6998L13.4167 52.5821L13.8333 51.4675L14.2578 50.3561L14.6906 49.2481L15.1322 48.1436L15.5832 47.0429L16.044 45.9461L16.515 44.8536L16.9969 43.7655L17.49 42.6822L17.9948 41.6039L18.5117 40.5312L19.0412 39.4642L19.5836 38.4033L20.1392 37.3491L20.7085 36.3017L21.2915 35.2617L21.8887 34.2295L22.5001 33.2053L23.126 32.1897L23.7665 31.183L24.4217 30.1857L25.0918 29.1981L25.7768 28.2208L26.4768 27.254L27.1919 26.2984L27.9221 25.3542L28.6674 24.4221L29.4278 23.5023L30.2033 22.5953L30.9938 21.7017L31.7992 20.8217L32.6194 19.9559L33.4544 19.1047L34.3039 18.2684L35.1677 17.4475L36.0458 16.6424L36.9378 15.8534L37.8435 15.081L38.7626 14.3254L39.6949 13.587L40.6401 12.8661L41.5979 12.163L42.5678 11.478L43.5496 10.8114L44.5429 10.1635L45.5473 9.53438L46.5624 8.92434L47.5877 8.33356L48.623 7.76221L49.6677 7.21044L50.7214 6.67838L51.7836 6.16616L52.854 5.67387L53.932 5.20158L55.0171 4.74936L56.1091 4.31724L57.2072 3.90527L58.3113 3.5135L59.4207 3.14198L60.5351 2.79078L61.654 2.45996L62.7772 2.1496L63.904 1.85977L65.0342 1.59056L66.1674 1.34206L67.3031 1.11434L68.441 0.907513L69.5806 0.721652L70.7217 0.556853L71.8637 0.413205L73.0062 0.290794L74.149 0.189703L75.2915 0.11001L76.4334 0.0517872L77.5742 0.0150984L78.7136 0L79.8511 0.00653807L80.9863 0.0347473L82.1187 0.0846497L83.248 0.156253L84.3737 0.24955L85.4953 0.364516L86.6125 0.501108L87.7247 0.659264L88.8315 0.8389L89.9325 1.03991L91.0272 1.26216L92.1152 1.50551L93.196 1.76976L94.2692 2.05471L95.3344 2.36012L96.391 2.68572L97.4388 3.03122L98.4771 3.39628L99.5058 3.78054L100.524 4.18361L101.532 4.60505L102.529 5.0444L103.515 5.50115L104.489 5.97478L105.451 6.4647L106.401 6.97032L107.339 7.491L108.264 8.02609L109.176 8.57493L110.074 9.13687L110.96 9.71124L111.832 10.2974L112.69 10.8946L113.535 11.5022L114.366 12.1195L115.183 12.7459L115.987 13.3807L116.776 14.0232L117.552 14.6727L118.315 15.3286L119.063 15.9903L119.798 16.657L120.52 17.3281L121.229 18.003L121.924 18.6811L122.607 19.3618L123.277 20.0445L123.935 20.7286L124.58 21.4134L125.214 22.0986L125.836 22.7834L126.448 23.4675L127.048 24.1502L127.638 24.8312L128.217 25.5098L128.787 26.1858L129.348 26.8586L129.9 27.5278L130.444 28.193L130.979 28.8539L131.507 29.5101L132.028 30.1613L132.542 30.8072L133.051 31.4475L133.554 32.0819L134.052 32.7102L134.545 33.332L135.035 33.947L135.521 34.555L136.005 35.1558L136.487 35.7489L136.968 36.3343L137.448 36.9116L137.929 37.4806L138.411 38.0412L138.894 38.5932L139.38 39.1365L139.869 39.6709L140.363 40.1965L140.861 40.7132L141.364 41.2211L141.874 41.7202L142.392 42.2105L142.917 42.6924L143.45 43.1659L143.993 43.6314L144.546 44.089L145.109 44.5392L145.684 44.9824L146.27 45.4189L146.869 45.8493L147.48 46.274L148.105 46.6937L148.744 47.1089L149.396 47.5203L150.063 47.9285L150.744 48.3343L151.441 48.7384L152.152 49.1417L152.878 49.5448L153.619 49.9486L154.375 50.354L155.146 50.7618L155.932 51.1729L156.733 51.5882L157.547 52.0085L158.376 52.4348L159.218 52.8679L160.073 53.3087L160.941 53.7581L161.821 54.217L162.712 54.6861L163.614 55.1664L164.526 55.6587L165.447 56.1638L166.376 56.6824L167.313 57.2153L168.256 57.7634L169.204 58.3272L170.157 58.9074L171.113 59.5047L172.07 60.1196L173.029 60.7528L173.987 61.4046L174.943 62.0755L175.896 62.766L176.844 63.4763L177.787 64.2068L178.723 64.9576L179.65 65.729L180.567 66.5211L181.473 67.3339L182.367 68.1674L183.246 69.0216L184.111 69.8963L184.958 70.7914L185.788 71.7066L186.599 72.6417L187.39 73.5963L188.159 74.5701L188.905 75.5625L189.628 76.5731L190.326 77.6013L190.998 78.6467L191.643 79.7084L192.261 80.786L192.85 81.8787L193.411 82.9857L193.941 84.1064" fill="url(#paint0_linear_2_15)"/>
<defs>
<linearGradient id="paint0_linear_2_15" x1="313.552" y1="240.533" x2="193.802" y2="396.635" gradientUnits="userSpaceOnUse">
<stop stop-color="#4A0391"/>
<stop offset="1" stop-color="#73D1F5"/>
</linearGradient>
</defs>
</svg>
