<svg width="433" height="245" viewBox="0 0 433 245" fill="none" xmlns="http://www.w3.org/2000/svg">
<path fill-rule="evenodd" clip-rule="evenodd" d="M-227 152.466L-224.238 148.299L-221.477 144.142L-218.715 139.997L-215.954 135.867L-213.192 131.755L-210.431 127.664L-207.669 123.596L-204.908 119.554L-202.146 115.54L-199.385 111.557L-196.623 107.609L-193.862 103.697L-191.1 99.8233L-188.339 95.9916L-185.577 92.204L-182.816 88.4629L-180.054 84.7708L-177.293 81.1301L-174.531 77.5433L-171.77 74.0126L-169.008 70.5404L-166.247 67.1291L-163.485 63.7807L-160.724 60.4976L-157.962 57.2818L-155.201 54.1356L-152.439 51.0609L-149.678 48.0599L-146.916 45.1344L-144.155 42.2863L-141.393 39.5177L-138.632 36.8302L-135.87 34.2257L-133.109 31.7058L-130.347 29.2722L-127.586 26.9266L-124.824 24.6704L-122.063 22.5052L-119.301 20.4323L-116.54 18.4532L-113.778 16.569L-111.017 14.7812L-108.255 13.0908L-105.494 11.4989L-102.732 10.0067L-99.9707 8.61502L-97.2092 7.32484L-94.4477 6.13701L-91.6862 5.05231L-88.9247 4.07145L-86.1632 3.19507L-83.4017 2.42375L-80.6402 1.75799L-77.8787 1.19824L-75.1172 0.744868L-72.3557 0.398163L-69.5941 0.158356L-66.8326 0.0256064L-64.0711 0L-61.3096 0.0815541L-58.5481 0.270215L-55.7866 0.565859L-53.0251 0.968291L-50.2636 1.47725L-47.5021 2.09239L-44.7406 2.81332L-41.9791 3.63956L-39.2176 4.57057L-36.4561 5.60574L-33.6946 6.74438L-30.933 7.98574L-28.1715 9.32902L-25.41 10.7733L-22.6485 12.3177L-19.887 13.9611L-17.1255 15.7026L-14.364 17.5408L-11.6025 19.4747L-8.841 21.503L-6.0795 23.6243L-3.31799 25.8372L-0.556488 28.1402L2.20502 30.532L4.96654 33.0108L7.72804 35.5751L10.4895 38.2231L13.2511 40.9532L16.0126 43.7635L18.7741 46.6523L21.5356 49.6175L24.2971 52.6572L27.0586 55.7695L29.8201 58.9523L32.5816 62.2035L35.3431 65.5209L38.1046 68.9025L40.8661 72.3459L43.6276 75.8489L46.3891 79.4091L49.1506 83.0244L51.9121 86.6922L54.6736 90.4102L57.4352 94.1759L60.1967 97.9869L62.9582 101.841L65.7197 105.735L68.4812 109.666L71.2427 113.633L74.0042 117.632L76.7657 121.661L79.5272 125.717L82.2887 129.797L85.0502 133.9L87.8117 138.021L90.5732 142.159L93.3347 146.311L96.0963 150.474L98.8578 154.645L101.619 158.821L104.381 163L107.142 167.179L109.904 171.355L112.665 175.526L115.427 179.689L118.188 183.841L120.95 187.979L123.711 192.1L126.473 196.203L129.234 200.283L131.996 204.339L134.757 208.368L137.519 212.367L140.28 216.334L143.042 220.265L145.803 224.159L148.565 228.013L151.326 231.824L154.088 235.59L156.849 239.308L159.611 242.976L162.372 246.591L165.134 250.151L167.895 253.654L170.657 257.098L173.418 260.479L176.18 263.797L178.941 267.048L181.703 270.23L184.464 273.343L187.226 276.383L189.987 279.348L192.749 282.236L195.51 285.047L198.272 287.777L201.033 290.425L203.795 292.989L206.556 295.468L209.318 297.86L212.079 300.163L214.841 302.376L217.603 304.497L220.364 306.525L223.126 308.459L225.887 310.297L228.649 312.039L231.41 313.682L234.172 315.227L236.933 316.671L239.695 318.014L242.456 319.256L245.218 320.394L247.979 321.429L250.741 322.36L253.502 323.187L256.264 323.908L259.025 324.523L261.787 325.032L264.548 325.434L267.31 325.73L270.071 325.918L272.833 326L275.594 325.974L278.356 325.842L281.117 325.602L283.879 325.255L286.64 324.802L289.402 324.242L292.163 323.576L294.925 322.805L297.686 321.929L300.448 320.948L303.209 319.863L305.971 318.675L308.732 317.385L311.494 315.993L314.255 314.501L317.017 312.909L319.778 311.219L322.54 309.431L325.301 307.547L328.063 305.568L330.824 303.495L333.586 301.33L336.347 299.073L339.109 296.728L341.87 294.294L344.632 291.774L347.393 289.17L350.155 286.482L352.916 283.714L355.678 280.866L358.439 277.94L361.201 274.939L363.962 271.864L366.724 268.718L369.485 265.502L372.247 262.219L375.008 258.871L377.77 255.46L380.531 251.987L383.293 248.457L386.054 244.87L388.816 241.229L391.577 237.537L394.339 233.796L397.1 230.008L399.862 226.177L402.623 222.303L405.385 218.391L408.146 214.443L410.908 210.46L413.669 206.446L416.431 202.404L419.193 198.336L421.954 194.245L424.716 190.133L427.477 186.003L430.239 181.858L433 177.701" fill="url(#paint0_linear_1_47)"/>
<defs>
<linearGradient id="paint0_linear_1_47" x1="335.048" y1="-158.102" x2="432.841" y2="189.548" gradientUnits="userSpaceOnUse">
<stop stop-color="#A82B5C"/>
<stop offset="1" stop-color="#240F91"/>
</linearGradient>
</defs>
</svg>
