<svg width="242" height="41" viewBox="0 0 242 41" fill="none" xmlns="http://www.w3.org/2000/svg">
<path fill-rule="evenodd" clip-rule="evenodd" d="M-37 3.25213L-36 3.03045L-35 2.81631L-34 2.60974L-33 2.41079L-32 2.21949L-31 2.03589L-30 1.86001L-29 1.6919L-28 1.53158L-27 1.3791L-26 1.23447L-25 1.09773L-24 0.968911L-23 0.848029L-22 0.735112L-21 0.630182L-20 0.53326L-19 0.444365L-18 0.363515L-17 0.290726L-16 0.226012L-15 0.169386L-14 0.12086L-13 0.0804427L-12 0.0481425L-11 0.0239657L-10 0.00791714L-9 0L-8 0.00021585L-7 0.00856465L-6 0.0250447L-5 0.0496529L-4 0.0823841L-3 0.123232L-2 0.172188L-1 0.229244L0 0.294387L1 0.367604L2 0.448881L3 0.538203L4 0.63555L5 0.740905L6 0.854246L7 0.97555L8 1.10479L9 1.24195L10 1.38699L11 1.5399L12 1.70063L13 1.86915L14 2.04544L15 2.22945L16 2.42116L17 2.62052L18 2.82749L19 3.04203L20 3.2641L21 3.49366L22 3.73066L23 3.97505L24 4.22679L25 4.48582L26 4.75209L27 5.02555L28 5.30615L29 5.59383L30 5.88854L31 6.1902L32 6.49878L33 6.8142L34 7.13639L35 7.46531L36 7.80088L37 8.14303L38 8.4917L39 8.84682L40 9.20832L41 9.57612L42 9.95016L43 10.3304L44 10.7166L45 11.1089L46 11.5071L47 11.9112L48 12.321L49 12.7366L50 13.1577L51 13.5844L52 14.0165L53 14.4539L54 14.8966L55 15.3445L56 15.7975L57 16.2555L58 16.7183L59 17.186L60 17.6585L61 18.1355L62 18.6171L63 19.1032L64 19.5935L65 20.0882L66 20.5869L67 21.0897L68 21.5965L69 22.1071L70 22.6215L71 23.1395L72 23.6611L73 24.1861L74 24.7144L75 25.2459L76 25.7806L77 26.3183L78 26.8589L79 27.4024L80 27.9485L81 28.4972L82 29.0484L83 29.6019L84 30.1577L85 30.7157L86 31.2757L87 31.8377L88 32.4014L89 32.9669L90 33.5339L91 34.1025L92 34.6724L93 35.2435L94 35.8158L95 36.3891L96 36.9634L97 37.5384L98 38.1142L99 38.6905L100 39.2672L101 39.8443L102 40.4216L103 40.9991L104 41.5765L105 42.1539L106 42.731L107 43.3077L108 43.884L109 44.4598L110 45.0348L111 45.609L112 46.1824L113 46.7547L114 47.3258L115 47.8957L116 48.4643L117 49.0313L118 49.5968L119 50.1605L120 50.7225L121 51.2825L122 51.8404L123 52.3963L124 52.9498L125 53.501L126 54.0497L127 54.5958L128 55.1392L129 55.6799L130 56.2176L131 56.7522L132 57.2838L133 57.8121L134 58.3371L135 58.8587L136 59.3767L137 59.891L138 60.4017L139 60.9084L140 61.4113L141 61.91L142 62.4046L143 62.895L144 63.3811L145 63.8626L146 64.3397L147 64.8121L148 65.2798L149 65.7427L150 66.2007L151 66.6537L152 67.1016L153 67.5443L154 67.9817L155 68.4138L156 68.8405L157 69.2616L158 69.6771L159 70.087L160 70.491L161 70.8893L162 71.2815L163 71.6678L164 72.048L165 72.4221L166 72.7899L167 73.1514L168 73.5065L169 73.8551L170 74.1973L171 74.5329L172 74.8618L173 75.184L174 75.4994L175 75.808L176 76.1096L177 76.4043L178 76.692L179 76.9726L180 77.2461L181 77.5124L182 77.7714L183 78.0231L184 78.2675L185 78.5045L186 78.7341L187 78.9561L188 79.1707L189 79.3777L190 79.577L191 79.7687L192 79.9527L193 80.129L194 80.2976L195 80.4583L196 80.6112L197 80.7562L198 80.8934L199 81.0226L200 81.1439L201 81.2573L202 81.3626L203 81.46L204 81.5493L205 81.6306L206 81.7038L207 81.7689L208 81.826L209 81.8749L210 81.9158L211 81.9485L212 81.9731L213 81.9896L214 81.998L215 81.9982L216 81.9903L217 81.9742L218 81.95L219 81.9177L220 81.8773L221 81.8288L222 81.7722L223 81.7075L224 81.6347L225 81.5538L226 81.4649L227 81.368L228 81.2631L229 81.1501L230 81.0293L231 80.9004L232 80.7637L233 80.6191L234 80.4666L235 80.3063L236 80.1382L237 79.9623L238 79.7787L239 79.5874L240 79.3884L241 79.1819L242 78.9677" fill="url(#paint0_linear_1_49)"/>
<defs>
<linearGradient id="paint0_linear_1_49" x1="-67.7098" y1="43.7264" x2="123.07" y2="177.714" gradientUnits="userSpaceOnUse">
<stop stop-color="#4A0391"/>
<stop offset="1" stop-color="#8591D4"/>
</linearGradient>
</defs>
</svg>
