<svg width="397" height="316" viewBox="0 0 397 316" fill="none" xmlns="http://www.w3.org/2000/svg">
<path fill-rule="evenodd" clip-rule="evenodd" d="M546.137 341.119L545.744 344.195L545.212 347.259L544.551 350.308L543.771 353.337L542.882 356.345L541.896 359.328L540.823 362.285L539.674 365.216L538.463 368.118L537.199 370.992L535.894 373.839L534.56 376.659L533.206 379.454L531.843 382.225L530.478 384.974L529.122 387.704L527.779 390.417L526.456 393.115L525.157 395.802L523.886 398.478L522.643 401.148L521.43 403.812L520.246 406.473L519.091 409.132L517.967 411.792L516.87 414.454L515.798 417.118L514.747 419.786L513.711 422.456L512.685 425.129L511.661 427.802L510.632 430.474L509.591 433.142L508.53 435.804L507.442 438.455L506.318 441.093L505.151 443.713L503.934 446.31L502.661 448.88L501.325 451.417L499.921 453.918L498.442 456.376L496.886 458.787L495.247 461.145L493.522 463.446L491.71 465.683L489.808 467.853L487.814 469.951L485.73 471.972L483.554 473.913L481.289 475.77L478.936 477.539L476.496 479.219L473.975 480.807L471.374 482.301L468.699 483.7L465.955 485.004L463.147 486.214L460.281 487.33L457.364 488.355L454.402 489.29L451.404 490.139L448.376 490.906L445.327 491.596L442.264 492.215L439.197 492.768L436.133 493.265L433.081 493.711L430.049 494.117L427.046 494.492L424.078 494.846L421.155 495.189L418.284 495.533L415.472 495.891L412.725 496.274L410.049 496.695L407.45 497.166L404.933 497.702L402.502 498.316L400.159 499.019L397.908 499.826L395.75 500.749L393.686 501.8L391.715 502.992L389.836 504.334L388.046 505.837L386.343 507.51L384.723 509.362L383.18 511.399L381.708 513.626L380.299 516.048L378.948 518.666L377.644 521.482L376.378 524.494L375.142 527.7L373.924 531.093L372.713 534.669L371.499 538.417L370.271 542.328L369.017 546.388L367.727 550.585L366.389 554.903L364.994 559.324L363.532 563.831L361.994 568.405L360.371 573.026L358.657 577.677L356.845 582.336L354.931 586.987L352.91 591.614L350.781 596.202L348.542 600.739L346.192 605.211L343.731 609.604L341.158 613.903L338.475 618.094L335.681 622.16L332.78 626.086L329.773 629.857L326.665 633.455L323.458 636.865L320.157 640.07L316.768 643.054L313.296 645.803L309.75 648.3L306.135 650.532L302.46 652.485L298.735 654.146L294.968 655.505L291.169 656.552L287.348 657.277L283.517 657.674L279.686 657.737L275.867 657.462L272.07 656.849L268.308 655.896L264.59 654.606L260.928 652.982L257.333 651.031L253.814 648.759L250.382 646.178L247.044 643.297L243.81 640.132L240.686 636.695L237.678 633.005L234.793 629.08L232.035 624.938L229.405 620.602L226.908 616.093L224.542 611.433L222.308 606.647L220.204 601.76L218.226 596.795L216.37 591.779L214.631 586.736L213.002 581.692L211.474 576.672L210.038 571.7L208.684 566.799L207.402 561.994L206.178 557.305L205 552.755L203.855 548.361L202.729 544.144L201.606 540.118L200.473 536.3L199.314 532.702L198.115 529.335L196.86 526.209L195.536 523.331L194.128 520.706L192.624 518.337L191.009 516.226L189.272 514.37L187.403 512.768L185.392 511.413L183.229 510.299L180.909 509.416L178.425 508.753L175.772 508.299L172.949 508.039L169.954 507.957L166.786 508.037L163.45 508.261L159.947 508.611L156.283 509.067L152.465 509.61L148.501 510.219L144.4 510.876L140.172 511.559L135.828 512.251L131.38 512.933L126.84 513.588L122.22 514.201L117.531 514.757L112.784 515.244L107.99 515.652L103.156 515.972L98.2921 516.197L93.4084 516.319L88.5151 516.33L83.6235 516.222L78.7457 515.987L73.8943 515.62L69.0825 515.112L64.3242 514.458L59.6337 513.651L55.0258 512.687L50.5152 511.559L46.117 510.266L41.8462 508.802L37.7176 507.167L33.7456 505.358L29.9442 503.376L26.3269 501.221L22.9063 498.895L19.6942 496.4L16.7014 493.74L13.9376 490.921L11.411 487.947L9.12891 484.825L7.09681 481.563L5.31885 478.169L3.79761 474.653L2.53404 471.023L1.52745 467.29L0.775532 463.464L0.274306 459.557L0.0181857 455.58L0 451.544L0.211048 447.461L0.641169 443.342L1.27883 439.198L2.1112 435.039L3.12431 430.877L4.30313 426.721L5.63171 422.58L7.09334 418.464L8.67068 414.38L10.3459 410.335L12.101 406.336L13.9176 402.389L15.7776 398.497L17.6629 394.664L19.5559 390.894L21.4394 387.187L23.297 383.545L25.1129 379.969L26.8726 376.456L28.5624 373.005L30.17 369.614L31.6843 366.28L33.0958 362.999L34.3964 359.767L35.5796 356.579L36.6404 353.43L37.5758 350.315L38.3841 347.229L39.0656 344.165L39.6222 341.119L40.0572 338.084L40.3758 335.057L40.5846 332.031L40.6916 329.003L40.7062 325.969L40.6388 322.924L40.5011 319.866L40.3057 316.793L40.0657 313.704L39.7951 310.596L39.508 307.471L39.2188 304.329L38.9417 301.17L38.6906 297.997L38.4789 294.812L38.3191 291.617L38.2229 288.417L38.2002 285.215L38.2599 282.014L38.4087 278.819L38.6512 275.632L38.99 272.458L39.4253 269.298L39.9553 266.155L40.5772 263.031L41.2882 259.928L42.0865 256.846L42.9706 253.789L43.9398 250.759L44.9942 247.757L46.1342 244.787L47.3611 241.852L48.6763 238.954L50.0821 236.099L51.5805 233.289L53.1742 230.529L54.8658 227.823L56.6577 225.177L58.5526 222.595L60.5527 220.082L62.66 217.644L64.8759 215.285L67.2015 213.011L69.6373 210.827L72.1829 208.737L74.8376 206.746L77.5997 204.859L80.4666 203.078L83.4353 201.406L86.5016 199.847L89.6608 198.403L92.9072 197.073L96.2345 195.86L99.6356 194.762L103.103 193.779L106.628 192.907L110.202 192.145L113.816 191.489L117.46 190.933L121.123 190.472L124.797 190.099L128.47 189.807L132.132 189.589L135.773 189.434L139.382 189.332L142.951 189.275L146.468 189.25L149.926 189.246L153.315 189.252L156.628 189.254L159.856 189.24L162.994 189.197L166.035 189.112L168.974 188.972L171.807 188.765L174.53 188.477L177.142 188.097L179.639 187.612L182.022 187.01L184.291 186.28L186.448 185.413L188.494 184.399L190.432 183.228L192.266 181.892L194.002 180.386L195.645 178.702L197.2 176.836L198.676 174.784L200.079 172.544L201.418 170.114L202.702 167.494L203.94 164.685L205.141 161.69L206.316 158.512L207.474 155.156L208.625 151.63L209.78 147.939L210.95 144.094L212.143 140.105L213.37 135.982L214.642 131.738L215.966 127.386L217.353 122.942L218.81 118.421L220.345 113.838L221.966 109.212L223.68 104.559L225.491 99.8986L227.406 95.2472L229.426 90.6205L231.555 86.032L233.794 81.494L236.143 77.0173L238.602 72.6115L241.17 68.285L243.846 64.0455L246.628 59.9L249.514 55.8547L252.502 51.9156L255.588 48.0881L258.771 44.3772L262.047 40.7878L265.412 37.3246L268.863 33.9918L272.397 30.7939L276.01 27.7349L279.698 24.8187L283.456 22.0491L287.281 19.4298L291.169 16.9642L295.113 14.6556L299.111 12.5072L303.158 10.5218L307.248 8.70201L311.376 7.05032L315.538 5.56882L319.729 4.25938L323.943 3.12353L328.175 2.16252L332.421 1.37725L336.674 0.768301L340.93 0.335905L345.184 0.0799555L349.43 0L353.664 0.0952434L357.879 0.364554L362.073 0.806469L366.239 1.41921L370.373 2.20069L374.471 3.14853L378.527 4.26008L382.539 5.53244L386.501 6.96247L390.41 8.54683L394.262 10.282L398.052 12.1642L401.779 14.1898L405.438 16.3546L409.026 18.6548L412.541 21.0862L415.979 23.6447L419.337 26.3262L422.614 29.1266L425.806 32.0418L428.911 35.0679L431.927 38.2009L434.851 41.4369L437.682 44.7723L440.416 48.2034L443.053 51.7268L445.59 55.3392L448.024 59.0374L450.354 62.8184L452.578 66.6793L454.692 70.6173L456.696 74.6297L458.587 78.7141L460.361 82.8678L462.018 87.0887L463.555 91.3741L464.969 95.7217L466.258 100.129L467.42 104.593L468.453 109.112L469.354 113.681L470.123 118.299L470.759 122.961L471.259 127.662L471.625 132.399L471.856 137.165L471.954 141.955L471.922 146.762L471.764 151.577L471.485 156.392L471.092 161.196L470.594 165.977L470.004 170.724L469.335 175.422L468.602 180.058L467.823 184.617L467.014 189.086L466.194 193.452L465.382 197.705L464.596 201.833L463.855 205.828L463.176 209.682L462.578 213.39L462.076 216.948L461.685 220.352L461.42 223.603L461.294 226.7L461.317 229.646L461.5 232.445L461.851 235.101L462.375 237.621L463.078 240.012L463.963 242.282L465.03 244.44L466.28 246.497L467.711 248.462L469.317 250.347L471.095 252.163L473.038 253.921L475.137 255.633L477.383 257.31L479.766 258.964L482.273 260.605L484.893 262.243L487.611 263.891L490.413 265.555L493.285 267.247L496.211 268.974L499.175 270.743L502.163 272.563L505.157 274.437L508.142 276.373L511.102 278.373L514.021 280.442L516.886 282.583L519.68 284.796L522.39 287.083L525.002 289.444L527.505 291.878L529.885 294.384L532.134 296.96L534.24 299.603L536.196 302.31L537.993 305.077L539.626 307.9L541.09 310.773L542.379 313.692L543.492 316.652L544.428 319.646L545.186 322.671L545.767 325.718L546.173 328.784L546.408 331.862L546.477 334.948L546.384 338.035L546.137 341.119Z" fill="url(#paint0_linear_1_50)"/>
<defs>
<linearGradient id="paint0_linear_1_50" x1="597.725" y1="954.242" x2="1089.25" y2="646.356" gradientUnits="userSpaceOnUse">
<stop stop-color="#4A0391"/>
<stop offset="1" stop-color="#84489F"/>
</linearGradient>
</defs>
</svg>
