<svg width="1203" height="616" viewBox="0 0 1203 616" fill="none" xmlns="http://www.w3.org/2000/svg">
<path d="M-197.67 2C-127.734 43.7325 -265.064 273.872 -195.128 315.605C-125.193 357.337 12.1377 127.197 82.0735 168.93C152.009 210.662 14.6788 440.802 84.4507 482.437C154.389 524.171 291.719 294.031 361.489 335.664C431.426 377.398 294.096 607.538 363.865 649.171C433.803 690.904 571.133 460.765 641.065 502.495C711.003 544.228 573.672 774.368 643.609 816.102C713.542 857.832 850.872 627.692 920.809 669.425C990.747 711.159 853.416 941.299 923.353 983.032C993.286 1024.76 1130.62 794.623 1200.55 836.356" stroke="#526EED" stroke-width="3" stroke-miterlimit="10" stroke-linecap="round"/>
</svg>
